<svg width="417" height="824" viewBox="0 0 417 824" fill="none" xmlns="http://www.w3.org/2000/svg">
<path d="M263.207 249.405C256.103 257.638 248.809 265.577 241.957 274.186C232.308 286.318 224.161 300.205 217.292 315.539C204.234 344.689 201.033 376.502 206.292 411.374C213.105 456.54 226.097 498.606 243.793 538.723C255.59 565.48 269.35 590.416 283.225 615.302C294.749 635.992 304.637 657.887 310.068 682.611C314.509 702.825 317.4 723.149 313.356 743.406C309.668 761.844 301.734 776.519 291.964 789.45C282.53 801.922 271.718 811.941 259.249 820.917C262.115 821.381 264.162 821.774 266.211 822.059C268.4 822.391 270.572 822.659 272.758 822.875C280.074 823.585 287.372 824 294.631 824C307.034 824 319.332 822.804 331.492 819.875C349.693 815.506 366.717 807.497 381.373 792.742C405.528 768.465 416.594 734.547 416.991 693.053C417.32 658.695 408.218 627.56 394.512 598.072C380.656 568.271 363.51 541.974 345.458 516.652C332.142 497.982 318.355 479.849 305.724 460.366C285.767 429.609 269.578 395.639 259.052 357.465C253.266 336.438 252.741 315.149 255.543 294.227C257.423 280.107 260.812 266.488 263.529 252.646C263.671 251.911 263.892 251.226 264.078 250.523L263.207 249.405Z" fill="#434343"/>
<path d="M153.8 0C153.496 0.371003 153.211 0.737092 152.922 1.12038C153.11 1.82062 153.331 2.51348 153.474 3.25058C156.195 17.076 159.579 30.7023 161.459 44.8226C164.259 65.756 163.737 87.0432 157.938 108.063C147.424 146.244 131.235 180.214 111.278 210.968C98.6474 230.444 84.8579 248.579 71.5422 267.257C53.4925 292.569 36.3509 318.866 22.4928 348.676C8.78434 378.163 -0.320222 409.3 0.00862331 443.658C0.406182 485.151 11.4691 519.068 35.6294 543.338C50.2752 558.092 67.304 566.109 85.5083 570.477C97.6707 573.406 109.965 574.605 122.368 574.605C129.63 574.605 136.926 574.19 144.242 573.47C146.433 573.254 148.602 572.993 150.791 572.664C152.838 572.376 154.885 571.988 157.751 571.516C145.277 562.539 134.472 552.519 125.038 540.052C115.259 527.121 107.332 512.448 103.644 494.009C99.5995 473.746 102.493 453.417 106.935 433.214C112.368 408.491 122.253 386.595 133.777 365.905C147.653 341.011 161.403 316.082 173.214 289.323C190.906 249.211 203.89 207.135 210.705 161.969C215.962 127.107 212.779 95.2937 199.701 66.1417C192.842 50.8102 184.694 36.9209 175.05 24.781C168.205 16.1841 160.9 8.24069 153.8 0Z" fill="#434343"/>
</svg>
