<svg width="11" height="21" viewBox="0 0 11 21" fill="none" xmlns="http://www.w3.org/2000/svg">
<path d="M6.94314 6.3562C6.75573 6.56603 6.56334 6.76835 6.38259 6.98776C6.12805 7.29696 5.91313 7.65087 5.73194 8.04166C5.38748 8.78455 5.30306 9.59532 5.44179 10.484C5.6215 11.6351 5.96421 12.7072 6.43101 13.7296C6.7422 14.4115 7.10517 15.047 7.47118 15.6813C7.77518 16.2086 8.036 16.7665 8.17926 17.3966C8.29643 17.9118 8.37269 18.4298 8.26601 18.946C8.16871 19.4159 7.95942 19.7899 7.70171 20.1195C7.45286 20.4373 7.16764 20.6927 6.83872 20.9214C6.91433 20.9333 6.96832 20.9433 7.02237 20.9505C7.08012 20.959 7.13741 20.9658 7.19509 20.9713C7.38806 20.9894 7.58059 21 7.77208 21C8.09925 21 8.42364 20.9695 8.7444 20.8949C9.22455 20.7835 9.67362 20.5794 10.0602 20.2034C10.6974 19.5847 10.9893 18.7202 10.9998 17.6628C11.0085 16.7871 10.7684 15.9937 10.4068 15.2421C10.0413 14.4826 9.58901 13.8124 9.11281 13.1671C8.76156 12.6913 8.39787 12.2292 8.06468 11.7326C7.53825 10.9488 7.11119 10.083 6.83354 9.11016C6.68089 8.57428 6.66704 8.03171 6.74097 7.49852C6.79056 7.13866 6.87995 6.79158 6.95162 6.43879C6.95537 6.42007 6.9612 6.4026 6.96612 6.38469L6.94314 6.3562Z" fill="#C9AD8C"/>
<path d="M4.05708 0C4.04905 0.00945517 4.04154 0.0187851 4.0339 0.0285534C4.03889 0.0463992 4.04471 0.0640572 4.04847 0.0828423C4.12026 0.435188 4.20953 0.782462 4.25912 1.14232C4.33298 1.67582 4.31919 2.21833 4.16622 2.75402C3.88889 3.72709 3.46183 4.59283 2.9354 5.37661C2.60221 5.87298 2.23846 6.33515 1.8872 6.81117C1.41107 7.45625 0.958896 8.12644 0.593334 8.88617C0.231721 9.63764 -0.00844709 10.4312 0.000227473 11.3068C0.0107146 12.3643 0.302542 13.2287 0.939863 13.8472C1.32621 14.2232 1.77541 14.4275 2.25561 14.5389C2.57644 14.6135 2.90077 14.6441 3.22794 14.6441C3.41949 14.6441 3.61196 14.6335 3.80493 14.6151C3.86274 14.6096 3.91997 14.603 3.97771 14.5946C4.0317 14.5873 4.08569 14.5774 4.1613 14.5653C3.83225 14.3365 3.54722 14.0812 3.29838 13.7635C3.0404 13.4339 2.83131 13.06 2.73401 12.59C2.62733 12.0736 2.70365 11.5555 2.82082 11.0406C2.96414 10.4106 3.2249 9.85254 3.5289 9.32524C3.89491 8.69081 4.25763 8.05549 4.5692 7.37353C5.03588 6.35125 5.37839 5.27893 5.55816 4.12784C5.69683 3.23937 5.61287 2.4286 5.26789 1.68565C5.08696 1.29492 4.87203 0.940946 4.61762 0.631555C4.43707 0.412458 4.24436 0.210018 4.05708 0Z" fill="#C9AD8C"/>
</svg>
