<svg width="430" height="22" viewBox="0 0 430 22" fill="none" xmlns="http://www.w3.org/2000/svg">
<path d="M0.167966 4.35741C0.116535 3.06316 0.0611971 1.74286 0 0.397827C0.917305 0.438842 1.8294 0.474645 2.73629 0.505243C3.64318 0.535842 4.55528 0.55082 5.47323 0.55082C6.39054 0.55082 7.31761 0.535842 8.2551 0.505243C9.19258 0.474645 10.2121 0.439493 11.3123 0.397827C11.2511 0.703813 11.2206 1.00914 11.2206 1.31513C11.2206 1.62046 11.2511 1.92645 11.3123 2.23243C10.7622 2.17124 10.0995 2.11525 9.32474 2.06447C8.55001 2.01369 7.76031 1.97267 6.95498 1.94207C6.14966 1.91147 5.37558 1.88674 4.63145 1.86591C3.88667 1.84573 3.27079 1.8353 2.78186 1.8353C2.76103 2.54883 2.74606 3.23178 2.73564 3.88346C2.72522 4.53579 2.72067 5.18812 2.72067 5.83981C2.72067 6.55399 2.72522 7.21089 2.73564 7.81179C2.74606 8.41334 2.75126 9.04029 2.75126 9.69197C4.0963 9.69197 5.42636 9.67179 6.74079 9.63078C8.05588 9.59041 9.35534 9.50838 10.6392 9.38599C10.5578 9.69197 10.5168 9.9973 10.5168 10.3033C10.5168 10.6093 10.5571 10.9146 10.6392 11.2206C10.1294 11.1594 9.55391 11.1138 8.91199 11.0832C8.27007 11.0526 7.60211 11.0279 6.90941 11.0071C6.21606 10.9869 5.51295 10.9765 4.80007 10.9765C4.08588 10.9765 3.4036 10.9765 2.75192 10.9765V13.5754C2.75192 14.9204 2.77731 16.2459 2.82809 17.5499C2.87887 18.8546 2.93551 20.1384 2.99605 21.4021C2.52666 21.3611 2.02797 21.3409 1.49803 21.3409C0.968086 21.3409 0.468744 21.3611 0 21.4021C0.0611971 20.1384 0.117186 18.8546 0.167966 17.5499C0.218747 16.2459 0.244788 14.9204 0.244788 13.5754V8.31633C0.244788 6.9713 0.218747 5.65166 0.167966 4.35741Z" fill="white"/>
<path d="M16.9835 4.35741C16.9321 3.06316 16.8767 1.74286 16.8156 0.397827C17.0805 0.438842 17.3351 0.474645 17.5799 0.505243C17.824 0.535842 18.0688 0.55082 18.3136 0.55082C18.5584 0.55082 18.8025 0.535842 19.0473 0.505243C19.2921 0.474645 19.5466 0.439493 19.8116 0.397827C19.7504 1.74286 19.6938 3.06316 19.6436 4.35741C19.5922 5.65166 19.5675 6.97131 19.5675 8.31699C19.5675 10.8853 19.5772 13.1125 19.5981 14.9979C19.6182 16.8833 19.6384 18.5701 19.6593 20.0577C21.1065 20.0577 22.4926 20.0427 23.8174 20.0121C25.1423 19.9815 26.5693 19.8644 28.098 19.6606C27.9957 20.0271 27.945 20.3331 27.945 20.5779C27.945 20.8025 27.9957 21.0779 28.098 21.4034C27.1605 21.3624 26.2223 21.3422 25.2848 21.3422C24.3473 21.3422 23.4092 21.3422 22.4724 21.3422C21.4939 21.3422 20.5505 21.3422 19.6443 21.3422C18.7368 21.3422 17.7947 21.3624 16.8162 21.4034C16.8774 20.1397 16.9334 18.8559 16.9842 17.5512C17.035 16.2472 17.061 14.9217 17.061 13.5767V8.31764C17.0603 6.9713 17.0349 5.65166 16.9835 4.35741Z" fill="white"/>
<path d="M33.8003 4.31119C33.7489 3.00717 33.6935 1.7025 33.6323 0.397827C34.5496 0.438842 35.4617 0.474645 36.3686 0.505243C37.2755 0.535842 38.1876 0.55082 39.1056 0.55082C40.0229 0.55082 40.9291 0.535842 41.8269 0.505243C42.7233 0.474645 43.6309 0.439493 44.5482 0.397827C44.487 0.703813 44.4564 1.00914 44.4564 1.31513C44.4564 1.62046 44.487 1.92645 44.5482 2.23243C43.8959 2.19207 43.2995 2.15106 42.7592 2.11005C42.2188 2.06968 41.6478 2.02867 41.0469 1.98765C40.4454 1.94729 39.7878 1.91082 39.075 1.88022C38.3614 1.84963 37.5053 1.83466 36.5066 1.83466C36.4865 2.48699 36.4611 3.10873 36.4305 3.69987C36.3999 4.29101 36.3849 4.96352 36.3849 5.71806C36.3849 6.51298 36.3894 7.2877 36.3999 8.0416C36.4096 8.79615 36.4148 9.36711 36.4148 9.75382C37.3113 9.75382 38.1166 9.74341 38.8302 9.72322C39.5437 9.70304 40.1954 9.67765 40.7872 9.64705C41.3783 9.61645 41.9232 9.58585 42.4226 9.55525C42.9219 9.52465 43.3959 9.48949 43.8444 9.44848C43.7832 9.75447 43.7526 10.0702 43.7526 10.3964C43.7526 10.7024 43.7832 11.0077 43.8444 11.3137C43.3138 11.2525 42.698 11.2017 41.9948 11.1607C41.2917 11.1203 40.588 11.0943 39.8848 11.0839C39.1817 11.0741 38.519 11.0637 37.8972 11.0533C37.2755 11.0435 36.7814 11.0383 36.4148 11.0383C36.4148 11.2219 36.4096 11.4205 36.3999 11.6346C36.3894 11.8488 36.3849 12.119 36.3849 12.4445V13.6372V15.4718C36.3849 16.6339 36.3894 17.5923 36.3999 18.3461C36.4096 19.1007 36.4253 19.6717 36.4454 20.0584C37.118 20.0584 37.8315 20.0584 38.586 20.0584C39.3601 20.0584 40.1192 20.0434 40.864 20.0128C41.6081 19.9822 42.3112 19.9418 42.9733 19.8904C43.6354 19.8396 44.2116 19.7635 44.7012 19.6612C44.6602 19.8038 44.6348 19.962 44.6244 20.1352C44.6139 20.3084 44.6094 20.4666 44.6094 20.6091C44.6094 20.9353 44.64 21.2003 44.7012 21.4041C43.7839 21.363 42.8711 21.3429 41.9642 21.3429C41.0574 21.3429 40.1348 21.3429 39.1974 21.3429C38.2599 21.3429 37.3321 21.3429 36.4155 21.3429C35.4982 21.3429 34.5705 21.363 33.633 21.4041C33.6942 20.1 33.7502 18.8006 33.8009 17.5057C33.8517 16.2114 33.8778 14.8918 33.8778 13.5461V8.28704C33.8765 6.9407 33.8511 5.61651 33.8003 4.31119Z" fill="white"/>
<path d="M60.0637 4.72451C60.8683 3.40943 61.6997 1.96804 62.5558 0.39775C63.0037 0.499963 63.3813 0.550743 63.6866 0.550743C63.9926 0.550743 64.3696 0.499963 64.8181 0.39775C63.656 2.00841 62.5148 3.58782 61.3937 5.13662C60.2726 6.68608 59.1926 8.28566 58.1529 9.93733C59.315 11.9145 60.4816 13.8507 61.6535 15.7465C62.8253 17.6423 64.0232 19.5277 65.2465 21.4027C64.9607 21.3617 64.6756 21.3415 64.3904 21.3415C64.1046 21.3415 63.8195 21.3415 63.5343 21.3415C63.2485 21.3415 62.9633 21.3415 62.6782 21.3415C62.3924 21.3415 62.1072 21.3617 61.8221 21.4027C61.007 19.9151 60.1965 18.4021 59.3918 16.8624C58.5865 15.3233 57.6646 13.7797 56.6249 12.2303C55.5852 13.7797 54.6171 15.3233 53.7206 16.8624C52.8235 18.4014 51.9472 19.9151 51.0911 21.4027C50.8873 21.3617 50.6881 21.3415 50.4948 21.3415C50.3008 21.3415 50.1224 21.3415 49.9596 21.3415C49.7962 21.3415 49.6185 21.3415 49.4245 21.3415C49.2305 21.3415 49.0319 21.3617 48.8281 21.4027C50.0508 19.7113 51.2435 17.9991 52.4056 16.266C53.5676 14.5336 54.7291 12.7706 55.8912 10.9764C54.8313 9.18278 53.7662 7.41979 52.6966 5.68674C51.6263 3.95434 50.5306 2.19069 49.4095 0.397095C49.6947 0.43811 49.97 0.473922 50.235 0.504521C50.5 0.535119 50.7747 0.550088 51.0605 0.550088C51.3457 0.550088 51.6211 0.535119 51.886 0.504521C52.1503 0.473922 52.4257 0.438761 52.7115 0.397095C53.3841 1.76296 54.1074 3.11321 54.8821 4.44848C55.6568 5.78374 56.5129 7.22643 57.4504 8.77524C58.3866 7.38919 59.2583 6.03895 60.0637 4.72451Z" fill="white"/>
<path d="M70.7946 4.35741C70.7431 3.06316 70.6878 1.74286 70.6266 0.397827C70.8916 0.438842 71.1461 0.474645 71.3909 0.505243C71.635 0.535842 71.8798 0.55082 72.1246 0.55082C72.3694 0.55082 72.6135 0.535842 72.8583 0.505243C73.1031 0.474645 73.3577 0.439493 73.6226 0.397827C73.5614 1.74286 73.5048 3.06316 73.4547 4.35741C73.4032 5.65166 73.3785 6.97131 73.3785 8.31699V13.576C73.3785 14.9211 73.4039 16.2466 73.4547 17.5506C73.5054 18.8553 73.5621 20.1391 73.6226 21.4028C73.1532 21.3617 72.6546 21.3416 72.1246 21.3416C71.5947 21.3416 71.0953 21.3617 70.6266 21.4028C70.6878 20.1391 70.7438 18.8553 70.7946 17.5506C70.8453 16.2466 70.8714 14.9211 70.8714 13.576V8.31699C70.8714 6.97131 70.8453 5.65166 70.7946 4.35741Z" fill="white"/>
<path d="M80.7931 4.31119C80.7417 3.00717 80.6864 1.7025 80.6252 0.397827C81.1551 0.438842 81.6955 0.474645 82.2456 0.505243C82.7957 0.535842 83.3354 0.55082 83.866 0.55082C84.3959 0.55082 84.9363 0.525427 85.4864 0.474647C86.0365 0.423866 86.5763 0.397827 87.1068 0.397827C87.9831 0.397827 88.8086 0.464228 89.5834 0.596387C90.3575 0.729198 91.0404 0.963576 91.6315 1.30016C92.2227 1.63674 92.6914 2.08986 93.0384 2.66082C93.3848 3.23177 93.5579 3.94465 93.5579 4.80076C93.5579 6.3092 93.084 7.49148 92.1361 8.34759C91.1882 9.2037 89.9499 9.80525 88.4213 10.1516V10.2128C90.2357 10.2942 91.6667 10.7323 92.7175 11.5279C93.7669 12.3228 94.2916 13.5969 94.2916 15.3501C94.2916 16.4914 94.0573 17.4497 93.5885 18.2244C93.1191 18.9991 92.5078 19.6261 91.7539 20.1046C90.9994 20.5838 90.1687 20.9197 89.2618 21.1137C88.3542 21.3077 87.4525 21.4041 86.5561 21.4041C86.0672 21.4041 85.5724 21.3936 85.0737 21.3734C84.5737 21.3533 84.0802 21.3429 83.5906 21.3429C83.101 21.3429 82.6069 21.3429 82.1076 21.3429C81.6076 21.3429 81.1141 21.363 80.6245 21.4041C80.6857 20.1 80.7417 18.8006 80.7925 17.5057C80.8433 16.2114 80.8693 14.8918 80.8693 13.5461V8.28704C80.8693 6.9407 80.8439 5.61651 80.7931 4.31119ZM87.1524 9.57023C87.8555 9.42831 88.4825 9.18807 89.0326 8.85149C89.5827 8.5149 90.0261 8.067 90.3627 7.50646C90.6992 6.94592 90.8672 6.23759 90.8672 5.38148C90.8672 4.54556 90.7142 3.87824 90.4082 3.3789C90.1022 2.87956 89.7149 2.4922 89.2461 2.21682C88.7768 1.94143 88.2475 1.75784 87.6563 1.66669C87.0645 1.5749 86.474 1.52933 85.8829 1.52933C85.353 1.52933 84.9051 1.54429 84.5379 1.57489C84.1713 1.60549 83.8452 1.6413 83.56 1.68232C83.519 2.66082 83.4786 3.62891 83.4376 4.58658C83.3966 5.5449 83.3764 6.51233 83.3764 7.49083V9.78377H85.0274C85.741 9.78442 86.4493 9.71346 87.1524 9.57023ZM83.4376 17.1222C83.478 18.1417 83.519 19.1704 83.56 20.2101C83.9467 20.2511 84.4057 20.2869 84.9357 20.3175C85.4649 20.3481 86.006 20.3631 86.5561 20.3631C87.2084 20.3631 87.8347 20.2517 88.4363 20.0265C89.0372 19.8025 89.5625 19.4711 90.0111 19.033C90.459 18.5948 90.8158 18.0551 91.0814 17.4126C91.3464 16.7706 91.4785 16.0421 91.4785 15.2264C91.4785 14.3501 91.3203 13.6314 91.0046 13.0708C90.6882 12.5103 90.2351 12.0721 89.6439 11.7557C89.0521 11.44 88.3445 11.2206 87.519 11.0982C86.6934 10.9758 85.7709 10.9146 84.7521 10.9146H83.3764V14.0337C83.3764 15.0734 83.3966 16.1033 83.4376 17.1222Z" fill="white"/>
<path d="M100.972 4.35741C100.92 3.06316 100.865 1.74286 100.804 0.397827C101.069 0.438842 101.323 0.474645 101.568 0.505243C101.812 0.535842 102.057 0.55082 102.302 0.55082C102.547 0.55082 102.791 0.535842 103.036 0.505243C103.28 0.474645 103.535 0.439493 103.8 0.397827C103.739 1.74286 103.682 3.06316 103.632 4.35741C103.581 5.65166 103.556 6.97131 103.556 8.31699C103.556 10.8853 103.566 13.1125 103.586 14.9979C103.607 16.8833 103.627 18.5701 103.648 20.0577C105.095 20.0577 106.481 20.0427 107.806 20.0121C109.131 19.9815 110.558 19.8644 112.086 19.6606C111.984 20.0271 111.933 20.3331 111.933 20.5779C111.933 20.8025 111.984 21.0779 112.086 21.4034C111.149 21.3624 110.211 21.3422 109.273 21.3422C108.336 21.3422 107.398 21.3422 106.461 21.3422C105.482 21.3422 104.539 21.3422 103.633 21.3422C102.725 21.3422 101.783 21.3624 100.805 21.4034C100.866 20.1397 100.922 18.8559 100.973 17.5512C101.023 16.2472 101.049 14.9217 101.049 13.5767V8.31764C101.048 6.9713 101.023 5.65166 100.972 4.35741Z" fill="white"/>
<path d="M117.787 4.31119C117.736 3.00717 117.681 1.7025 117.62 0.397827C118.537 0.438842 119.449 0.474645 120.356 0.505243C121.263 0.535842 122.175 0.55082 123.093 0.55082C124.01 0.55082 124.916 0.535842 125.814 0.505243C126.711 0.474645 127.618 0.439493 128.535 0.397827C128.474 0.703813 128.444 1.00914 128.444 1.31513C128.444 1.62046 128.474 1.92645 128.535 2.23243C127.883 2.19207 127.287 2.15106 126.746 2.11005C126.206 2.06968 125.635 2.02867 125.034 1.98765C124.433 1.94729 123.775 1.91082 123.062 1.88022C122.349 1.84963 121.492 1.83466 120.494 1.83466C120.474 2.48699 120.448 3.10873 120.418 3.69987C120.387 4.29101 120.372 4.96352 120.372 5.71806C120.372 6.51298 120.377 7.2877 120.387 8.0416C120.397 8.79615 120.402 9.36711 120.402 9.75382C121.298 9.75382 122.104 9.74341 122.817 9.72322C123.531 9.70304 124.183 9.67765 124.774 9.64705C125.365 9.61645 125.91 9.58585 126.41 9.55525C126.909 9.52465 127.383 9.48949 127.832 9.44848C127.77 9.75447 127.74 10.0702 127.74 10.3964C127.74 10.7024 127.77 11.0077 127.832 11.3137C127.301 11.2525 126.685 11.2017 125.982 11.1607C125.279 11.1203 124.575 11.0943 123.872 11.0839C123.169 11.0741 122.506 11.0637 121.884 11.0533C121.263 11.0435 120.769 11.0383 120.402 11.0383C120.402 11.2219 120.397 11.4205 120.387 11.6346C120.377 11.8488 120.372 12.119 120.372 12.4445V13.6372V15.4718C120.372 16.6339 120.377 17.5923 120.387 18.3461C120.397 19.1007 120.412 19.6717 120.433 20.0584C121.105 20.0584 121.819 20.0584 122.573 20.0584C123.347 20.0584 124.106 20.0434 124.851 20.0128C125.595 19.9822 126.298 19.9418 126.961 19.8904C127.623 19.8396 128.199 19.7635 128.688 19.6612C128.647 19.8038 128.622 19.962 128.612 20.1352C128.601 20.3084 128.597 20.4666 128.597 20.6091C128.597 20.9353 128.627 21.2003 128.688 21.4041C127.771 21.363 126.858 21.3429 125.951 21.3429C125.045 21.3429 124.122 21.3429 123.185 21.3429C122.247 21.3429 121.319 21.3429 120.403 21.3429C119.485 21.3429 118.558 21.363 117.62 21.4041C117.681 20.1 117.737 18.8006 117.788 17.5057C117.839 16.2114 117.865 14.8918 117.865 13.5461V8.28704C117.864 6.9407 117.838 5.61651 117.787 4.31119Z" fill="white"/>
<path d="M159.92 4.35741C159.868 3.06316 159.812 1.74286 159.752 0.397827C160.016 0.438842 160.271 0.474645 160.516 0.505243C160.761 0.535842 161.005 0.55082 161.25 0.55082C161.495 0.55082 161.739 0.535842 161.983 0.505243C162.228 0.474645 162.483 0.439493 162.748 0.397827C162.687 1.74286 162.631 3.06316 162.58 4.35741C162.528 5.65166 162.504 6.97131 162.504 8.31699V13.576C162.504 14.9211 162.529 16.2466 162.58 17.5506C162.631 18.8553 162.687 20.1391 162.748 21.4028C162.278 21.3617 161.78 21.3416 161.25 21.3416C160.72 21.3416 160.22 21.3617 159.752 21.4028C159.813 20.1391 159.869 18.8553 159.92 17.5506C159.97 16.2466 159.996 14.9211 159.996 13.576V10.8241C158.896 10.8039 157.83 10.789 156.801 10.7786C155.771 10.7681 154.706 10.7636 153.605 10.7636C152.505 10.7636 151.439 10.7688 150.41 10.7786C149.381 10.789 148.316 10.8046 147.215 10.8241V13.576C147.215 14.9211 147.241 16.2466 147.292 17.5506C147.342 18.8553 147.399 20.1391 147.46 21.4028C146.99 21.3617 146.491 21.3416 145.962 21.3416C145.432 21.3416 144.932 21.3617 144.464 21.4028C144.525 20.1391 144.581 18.8553 144.631 17.5506C144.682 16.2466 144.708 14.9211 144.708 13.576V8.31699C144.708 6.97196 144.682 5.65231 144.631 4.35741C144.58 3.06316 144.525 1.74286 144.464 0.397827C144.728 0.438842 144.983 0.474645 145.228 0.505243C145.472 0.535842 145.717 0.55082 145.962 0.55082C146.206 0.55082 146.45 0.535842 146.695 0.505243C146.94 0.474645 147.195 0.439493 147.46 0.397827C147.398 1.74286 147.342 3.06316 147.292 4.35741C147.24 5.65166 147.215 6.97131 147.215 8.31699V9.38729C148.316 9.40812 149.381 9.4283 150.41 9.44848C151.439 9.46866 152.504 9.47909 153.605 9.47909C154.706 9.47909 155.771 9.46866 156.801 9.44848C157.83 9.4283 158.895 9.40812 159.996 9.38729V8.31699C159.996 6.97131 159.97 5.65166 159.92 4.35741Z" fill="white"/>
<path d="M169.948 4.31119C169.897 3.00717 169.841 1.7025 169.78 0.397827C170.698 0.438842 171.61 0.474645 172.517 0.505243C173.423 0.535842 174.336 0.55082 175.254 0.55082C176.171 0.55082 177.077 0.535842 177.975 0.505243C178.871 0.474645 179.779 0.439493 180.696 0.397827C180.635 0.703813 180.604 1.00914 180.604 1.31513C180.604 1.62046 180.635 1.92645 180.696 2.23243C180.044 2.19207 179.447 2.15106 178.907 2.11005C178.367 2.06968 177.796 2.02867 177.195 1.98765C176.593 1.94729 175.936 1.91082 175.223 1.88022C174.509 1.84963 173.653 1.83466 172.655 1.83466C172.634 2.48699 172.609 3.10873 172.578 3.69987C172.548 4.29101 172.533 4.96352 172.533 5.71806C172.533 6.51298 172.537 7.2877 172.548 8.0416C172.558 8.79615 172.563 9.36711 172.563 9.75382C173.459 9.75382 174.265 9.74341 174.978 9.72322C175.692 9.70304 176.343 9.67765 176.935 9.64705C177.526 9.61645 178.071 9.58585 178.571 9.55525C179.07 9.52465 179.544 9.48949 179.992 9.44848C179.931 9.75447 179.901 10.0702 179.901 10.3964C179.901 10.7024 179.931 11.0077 179.992 11.3137C179.462 11.2525 178.846 11.2017 178.143 11.1607C177.44 11.1203 176.736 11.0943 176.033 11.0839C175.33 11.0741 174.667 11.0637 174.045 11.0533C173.423 11.0435 172.929 11.0383 172.563 11.0383C172.563 11.2219 172.558 11.4205 172.548 11.6346C172.537 11.8488 172.533 12.119 172.533 12.4445V13.6372V15.4718C172.533 16.6339 172.537 17.5923 172.548 18.3461C172.558 19.1007 172.573 19.6717 172.593 20.0584C173.266 20.0584 173.979 20.0584 174.734 20.0584C175.508 20.0584 176.267 20.0434 177.012 20.0128C177.756 19.9822 178.459 19.9418 179.121 19.8904C179.783 19.8396 180.36 19.7635 180.849 19.6612C180.808 19.8038 180.783 19.962 180.772 20.1352C180.762 20.3084 180.757 20.4666 180.757 20.6091C180.757 20.9353 180.788 21.2003 180.849 21.4041C179.932 21.363 179.019 21.3429 178.112 21.3429C177.205 21.3429 176.283 21.3429 175.345 21.3429C174.408 21.3429 173.48 21.3429 172.563 21.3429C171.646 21.3429 170.718 21.363 169.781 21.4041C169.842 20.1 169.898 18.8006 169.949 17.5057C170 16.2114 170.026 14.8918 170.026 13.5461V8.28704C170.024 6.9407 169.999 5.61651 169.948 4.31119Z" fill="white"/>
<path d="M203.718 21.4027C203.433 21.3617 203.163 21.3415 202.908 21.3415C202.653 21.3415 202.383 21.3415 202.097 21.3415C201.812 21.3415 201.541 21.3415 201.287 21.3415C201.032 21.3415 200.762 21.3617 200.476 21.4027C200.334 20.934 200.14 20.3689 199.896 19.7062C199.651 19.0441 199.381 18.3507 199.085 17.6274C198.79 16.9041 198.489 16.1704 198.183 15.4263C197.877 14.6821 197.592 13.9738 197.327 13.3013C196.675 13.2811 196.012 13.2661 195.34 13.2557C194.667 13.2459 193.995 13.2407 193.322 13.2407C192.689 13.2407 192.068 13.2459 191.456 13.2557C190.845 13.2661 190.223 13.2818 189.591 13.3013C188.939 14.8911 188.348 16.4048 187.818 17.8416C187.288 19.2791 186.89 20.4666 186.625 21.4034C186.278 21.3624 185.902 21.3422 185.494 21.3422C185.086 21.3422 184.709 21.3624 184.363 21.4034C186.014 17.8364 187.624 14.2902 189.193 10.7636C190.762 7.23692 192.342 3.64973 193.932 0.00134277H194.513C195.002 1.18362 195.532 2.46224 196.103 3.83853C196.673 5.21416 197.254 6.60542 197.846 8.01165C198.437 9.41853 199.027 10.8143 199.619 12.2004C200.21 13.5864 200.765 14.8755 201.286 16.0682C201.806 17.2609 202.274 18.326 202.692 19.2634C203.111 20.2003 203.452 20.9132 203.718 21.4027ZM190.173 11.8938C190.703 11.8938 191.253 11.9042 191.824 11.9244C192.394 11.9452 192.945 11.955 193.475 11.955C194.045 11.955 194.616 11.9504 195.187 11.9393C195.758 11.9296 196.329 11.9139 196.9 11.8938L193.506 4.12759L190.173 11.8938Z" fill="white"/>
<path d="M210.688 1.98765C210.159 1.98765 209.603 1.99285 209.022 2.00262C208.441 2.01304 207.86 2.03323 207.279 2.06382C206.698 2.09442 206.137 2.13022 205.597 2.17124C205.057 2.21225 204.573 2.26304 204.146 2.32423C204.247 1.95705 204.299 1.63153 204.299 1.34573C204.299 1.12177 204.247 0.806025 204.146 0.397827C205.491 0.438842 206.805 0.474645 208.09 0.505243C209.373 0.535842 210.688 0.55082 212.034 0.55082C213.379 0.55082 214.694 0.535842 215.978 0.505243C217.262 0.474645 218.577 0.439493 219.922 0.397827C219.82 0.806025 219.769 1.13154 219.769 1.37633C219.769 1.6413 219.82 1.95705 219.922 2.32423C219.494 2.26304 219.009 2.21225 218.47 2.17124C217.929 2.13088 217.369 2.09442 216.788 2.06382C216.207 2.03323 215.626 2.01304 215.045 2.00262C214.464 1.9922 213.908 1.98765 213.379 1.98765C213.317 4.08723 213.287 6.19657 213.287 8.31633V13.5754C213.287 14.9204 213.312 16.2459 213.363 17.5499C213.414 18.8546 213.47 20.1384 213.531 21.4021C213.062 21.3611 212.563 21.3409 212.033 21.3409C211.503 21.3409 211.004 21.3611 210.535 21.4021C210.596 20.1384 210.652 18.8546 210.703 17.5499C210.754 16.2459 210.78 14.9204 210.78 13.5754V8.31633C210.78 6.19722 210.75 4.08723 210.688 1.98765Z" fill="white"/>
<path d="M224.982 4.35741C224.93 3.06316 224.875 1.74286 224.814 0.397827C225.079 0.438842 225.333 0.474645 225.578 0.505243C225.822 0.535842 226.067 0.55082 226.312 0.55082C226.557 0.55082 226.801 0.535842 227.046 0.505243C227.291 0.474645 227.545 0.439493 227.81 0.397827C227.749 1.74286 227.692 3.06316 227.642 4.35741C227.591 5.65166 227.566 6.97131 227.566 8.31699V13.576C227.566 14.9211 227.591 16.2466 227.642 17.5506C227.693 18.8553 227.749 20.1391 227.81 21.4028C227.341 21.3617 226.842 21.3416 226.312 21.3416C225.782 21.3416 225.283 21.3617 224.814 21.4028C224.875 20.1391 224.931 18.8553 224.982 17.5506C225.033 16.2466 225.059 14.9211 225.059 13.576V8.31699C225.059 6.97131 225.033 5.65166 224.982 4.35741Z" fill="white"/>
<path d="M244.81 13.4685C242.16 10.6255 239.51 7.79738 236.861 4.98427C236.841 5.55522 236.82 6.31954 236.8 7.27721C236.779 8.23553 236.769 9.53955 236.769 11.1906C236.769 11.6189 236.774 12.1489 236.784 12.7804C236.794 13.4125 236.804 14.0753 236.815 14.768C236.824 15.4613 236.84 16.1644 236.86 16.878C236.88 17.5915 236.9 18.2536 236.921 18.8649C236.941 19.4763 236.962 20.0114 236.983 20.4704C237.003 20.9294 237.023 21.2399 237.044 21.4027C236.718 21.3617 236.361 21.3415 235.973 21.3415C235.566 21.3415 235.188 21.3617 234.842 21.4027C234.882 21.1995 234.929 20.8219 234.979 20.2718C235.03 19.721 235.076 19.0642 235.117 18.2998C235.157 17.5355 235.203 16.7055 235.254 15.8077C235.305 14.9112 235.346 14.0147 235.376 13.117C235.407 12.2205 235.432 11.3436 235.453 10.4874C235.473 9.63134 235.484 8.86703 235.484 8.19451C235.484 6.23815 235.479 4.55654 235.469 3.14966C235.458 1.74278 235.433 0.69396 235.393 0.000610352H235.882C237.125 1.34564 238.455 2.78834 239.872 4.32673C241.288 5.86642 242.695 7.38463 244.091 8.88265C245.487 10.3807 246.812 11.798 248.066 13.1326C249.32 14.4679 250.415 15.6039 251.353 16.5414V12.3833C251.353 10.2427 251.338 8.15935 251.307 6.13074C251.277 4.10277 251.21 2.19199 251.108 0.397741C251.516 0.499953 251.862 0.550734 252.148 0.550734C252.392 0.550734 252.718 0.499953 253.126 0.397741C253.085 0.846302 253.04 1.51882 252.989 2.41595C252.938 3.31307 252.887 4.27139 252.836 5.29025C252.785 6.30977 252.739 7.30845 252.699 8.28695C252.658 9.26546 252.638 10.0499 252.638 10.6411C252.638 11.1508 252.638 11.7622 252.638 12.4757C252.638 13.1684 252.642 13.8924 252.653 14.6462C252.663 15.4008 252.673 16.1599 252.683 16.9242C252.693 17.6885 252.704 18.4027 252.714 19.0648C252.724 19.7276 252.729 20.3031 252.729 20.792C252.729 21.2406 252.729 21.5765 252.729 21.8011H252.301C249.956 19.0895 247.46 16.3116 244.81 13.4685Z" fill="white"/>
<path d="M276.744 3.02726C276.286 2.66073 275.776 2.33912 275.216 2.06438C274.655 1.789 274.033 1.56504 273.35 1.39186C272.667 1.21869 271.939 1.13211 271.164 1.13211C269.901 1.13211 268.723 1.32612 267.633 1.71283C266.543 2.10019 265.595 2.69654 264.789 3.50187C263.984 4.3072 263.352 5.32606 262.894 6.55912C262.435 7.79283 262.205 9.25504 262.205 10.9464C262.205 12.4347 262.409 13.7797 262.817 14.9822C263.224 16.1853 263.821 17.1989 264.606 18.0245C265.39 18.85 266.349 19.4873 267.48 19.9359C268.611 20.3844 269.89 20.6084 271.317 20.6084C271.746 20.6084 272.194 20.5882 272.662 20.5472C273.131 20.5068 273.585 20.4456 274.023 20.3636C274.461 20.2822 274.869 20.18 275.246 20.0576C275.623 19.9352 275.944 19.7933 276.209 19.6299C276.229 19.0186 276.244 18.4073 276.255 17.7953C276.265 17.184 276.27 16.5622 276.27 15.9301C276.27 15.2166 276.255 14.5037 276.224 13.7895C276.193 13.0766 276.158 12.3937 276.117 11.7413C276.626 11.8435 277.116 11.8943 277.585 11.8943C277.809 11.8943 278.033 11.8846 278.257 11.8637C278.481 11.8435 278.695 11.8025 278.899 11.7413C278.858 12.2107 278.828 12.949 278.807 13.9581C278.787 14.9672 278.777 16.2973 278.777 17.9483C278.777 18.3558 278.781 18.7692 278.792 19.1865C278.802 19.6045 278.807 20.0173 278.807 20.4248C278.379 20.5882 277.845 20.7562 277.202 20.9294C276.56 21.1025 275.876 21.2451 275.154 21.3571C274.43 21.4691 273.706 21.5713 272.983 21.6631C272.259 21.7549 271.602 21.8004 271.011 21.8004C269.197 21.8004 267.561 21.581 266.104 21.1429C264.646 20.7048 263.408 20.027 262.389 19.1097C261.369 18.1924 260.585 17.0512 260.035 15.6853C259.484 14.3201 259.209 12.74 259.209 10.9464C259.209 9.21403 259.495 7.66978 260.065 6.31433C260.636 4.95887 261.441 3.8124 262.481 2.87492C263.521 1.93743 264.779 1.2239 266.257 0.734324C267.735 0.244747 269.37 0.000610352 271.164 0.000610352C272.204 0.000610352 273.126 0.0565963 273.931 0.168574C274.736 0.280552 275.449 0.428336 276.071 0.611927C276.693 0.795518 277.238 0.989525 277.707 1.19265C278.176 1.39642 278.594 1.58979 278.961 1.77338C278.798 2.05918 278.65 2.42571 278.518 2.87427C278.385 3.32283 278.298 3.7408 278.258 4.12751H277.891C277.585 3.76098 277.203 3.39445 276.744 3.02726Z" fill="white"/>
<path d="M295.701 18.544C295.976 18.9216 296.312 19.2627 296.71 19.5687C297.107 19.874 297.571 20.124 298.101 20.3174C298.631 20.5114 299.222 20.6077 299.875 20.6077C300.547 20.6077 301.153 20.4906 301.694 20.2562C302.233 20.0218 302.692 19.7054 303.069 19.3083C303.446 18.9112 303.737 18.4418 303.94 17.9021C304.144 17.3617 304.246 16.7862 304.246 16.1742C304.246 15.2374 304.007 14.4926 303.528 13.9425C303.049 13.3923 302.452 12.9334 301.739 12.5668C301.025 12.2003 300.256 11.8637 299.431 11.5577C298.605 11.2518 297.836 10.8696 297.122 10.4113C296.409 9.95295 295.812 9.36702 295.333 8.65349C294.854 7.93995 294.614 6.98229 294.614 5.77918C294.614 4.92307 294.767 4.14314 295.073 3.44002C295.379 2.7369 295.822 2.13079 296.403 1.62103C296.984 1.11192 297.682 0.714141 298.498 0.428337C299.313 0.143185 300.23 0.000610352 301.25 0.000610352C302.228 0.000610352 303.074 0.118443 303.787 0.352164C304.501 0.586535 305.164 0.948515 305.775 1.43744C305.591 1.78444 305.438 2.15162 305.316 2.53833C305.194 2.9257 305.072 3.41528 304.95 4.00577H304.583C304.481 3.72062 304.343 3.40941 304.17 3.07283C303.996 2.73625 303.762 2.42571 303.467 2.14056C303.171 1.8554 302.819 1.61582 302.412 1.42181C302.004 1.22846 301.515 1.13145 300.944 1.13145C300.373 1.13145 299.848 1.22325 299.37 1.40619C298.89 1.58978 298.472 1.84954 298.116 2.18612C297.76 2.52271 297.484 2.92505 297.291 3.3938C297.097 3.86319 297 4.37229 297 4.92242C297 5.88074 297.24 6.63464 297.719 7.18476C298.198 7.73553 298.794 8.19906 299.508 8.57601C300.221 8.95361 300.991 9.28955 301.816 9.58511C302.642 9.88068 303.411 10.242 304.124 10.6704C304.838 11.0981 305.434 11.6489 305.913 12.3214C306.392 12.9939 306.632 13.891 306.632 15.0121C306.632 15.9496 306.464 16.8363 306.127 17.6716C305.791 18.5075 305.302 19.236 304.66 19.8578C304.018 20.4802 303.233 20.9587 302.306 21.2952C301.378 21.6318 300.323 21.7998 299.141 21.7998C297.877 21.7998 296.853 21.6318 296.068 21.2952C295.283 20.9587 294.626 20.5765 294.096 20.1488C294.28 19.68 294.407 19.2575 294.478 18.8799C294.549 18.503 294.616 18.0192 294.678 17.4281H295.044C295.206 17.7946 295.426 18.167 295.701 18.544Z" fill="white"/>
<path d="M312.456 4.31119C312.405 3.00717 312.349 1.7025 312.288 0.397827C313.205 0.438842 314.117 0.474645 315.024 0.505243C315.931 0.535842 316.843 0.55082 317.761 0.55082C318.679 0.55082 319.585 0.535842 320.483 0.505243C321.379 0.474645 322.287 0.439493 323.204 0.397827C323.143 0.703813 323.112 1.00914 323.112 1.31513C323.112 1.62046 323.143 1.92645 323.204 2.23243C322.552 2.19207 321.955 2.15106 321.415 2.11005C320.875 2.06968 320.304 2.02867 319.703 1.98765C319.101 1.94729 318.444 1.91082 317.731 1.88022C317.017 1.84963 316.161 1.83466 315.162 1.83466C315.142 2.48699 315.117 3.10873 315.086 3.69987C315.056 4.29101 315.041 4.96352 315.041 5.71806C315.041 6.51298 315.045 7.2877 315.056 8.0416C315.065 8.79615 315.071 9.36711 315.071 9.75382C315.967 9.75382 316.772 9.74341 317.486 9.72322C318.199 9.70304 318.851 9.67765 319.443 9.64705C320.034 9.61645 320.579 9.58585 321.078 9.55525C321.578 9.52465 322.052 9.48949 322.5 9.44848C322.439 9.75447 322.408 10.0702 322.408 10.3964C322.408 10.7024 322.439 11.0077 322.5 11.3137C321.97 11.2525 321.354 11.2017 320.651 11.1607C319.947 11.1203 319.244 11.0943 318.541 11.0839C317.837 11.0741 317.175 11.0637 316.553 11.0533C315.931 11.0435 315.437 11.0383 315.071 11.0383C315.071 11.2219 315.065 11.4205 315.056 11.6346C315.045 11.8488 315.041 12.119 315.041 12.4445V13.6372V15.4718C315.041 16.6339 315.045 17.5923 315.056 18.3461C315.065 19.1007 315.081 19.6717 315.101 20.0584C315.774 20.0584 316.487 20.0584 317.242 20.0584C318.016 20.0584 318.775 20.0434 319.52 20.0128C320.264 19.9822 320.967 19.9418 321.629 19.8904C322.291 19.8396 322.867 19.7635 323.357 19.6612C323.316 19.8038 323.291 19.962 323.28 20.1352C323.27 20.3084 323.265 20.4666 323.265 20.6091C323.265 20.9353 323.296 21.2003 323.357 21.4041C322.44 21.363 321.527 21.3429 320.62 21.3429C319.713 21.3429 318.791 21.3429 317.853 21.3429C316.916 21.3429 315.988 21.3429 315.071 21.3429C314.154 21.3429 313.226 21.363 312.289 21.4041C312.35 20.1 312.406 18.8006 312.457 17.5057C312.507 16.2114 312.534 14.8918 312.534 13.5461V8.28704C312.532 6.9407 312.507 5.61651 312.456 4.31119Z" fill="white"/>
<path d="M329.242 4.35741C329.19 3.06316 329.135 1.74286 329.074 0.397827C329.665 0.438842 330.245 0.474645 330.816 0.505243C331.387 0.535842 331.967 0.55082 332.559 0.55082C333.15 0.55082 333.731 0.525427 334.302 0.474647C334.872 0.423866 335.454 0.397827 336.045 0.397827C336.901 0.397827 337.716 0.479211 338.491 0.64262C339.265 0.806029 339.943 1.0762 340.524 1.45315C341.105 1.83075 341.564 2.32423 341.9 2.93555C342.236 3.54687 342.404 4.31118 342.404 5.22849C342.404 6.20699 342.185 7.04747 341.747 7.75124C341.308 8.45436 340.773 9.03508 340.142 9.49406C339.51 9.95303 338.832 10.3091 338.109 10.5644C337.385 10.8196 336.727 10.9875 336.137 11.0689C336.381 11.3749 336.717 11.8026 337.146 12.3534C337.574 12.9035 338.053 13.5103 338.583 14.1724C339.113 14.8351 339.663 15.5285 340.234 16.2511C340.804 16.9751 341.355 17.6678 341.885 18.3299C342.415 18.9926 342.914 19.5987 343.383 20.1489C343.851 20.699 344.228 21.1169 344.514 21.4021C344.208 21.3611 343.902 21.3409 343.596 21.3409C343.29 21.3409 342.985 21.3409 342.679 21.3409C342.393 21.3409 342.098 21.3409 341.792 21.3409C341.487 21.3409 341.191 21.3611 340.906 21.4021C340.6 20.9744 340.136 20.3318 339.514 19.4763C338.892 18.6202 338.204 17.7029 337.45 16.7244C336.696 15.7459 335.926 14.7726 335.142 13.8045C334.357 12.8371 333.639 12.0162 332.986 11.3436H331.825V13.5754C331.825 14.9204 331.85 16.2459 331.901 17.5499C331.952 18.8546 332.008 20.1384 332.069 21.4021C331.6 21.3611 331.101 21.3409 330.571 21.3409C330.041 21.3409 329.542 21.3611 329.073 21.4021C329.134 20.1384 329.19 18.8546 329.241 17.5499C329.292 16.2459 329.318 14.9204 329.318 13.5754V8.31633C329.318 6.9713 329.292 5.65166 329.242 4.35741ZM332.758 10.1815C333.094 10.2024 333.466 10.2121 333.874 10.2121C334.505 10.2121 335.162 10.1412 335.846 9.99796C336.529 9.85538 337.156 9.60538 337.726 9.24926C338.296 8.89315 338.77 8.41334 339.148 7.81179C339.525 7.21089 339.713 6.45113 339.713 5.53383C339.713 4.73892 339.565 4.08137 339.27 3.56185C338.975 3.04232 338.592 2.62891 338.124 2.32358C337.654 2.01759 337.145 1.80861 336.595 1.69663C336.044 1.58466 335.505 1.52867 334.975 1.52867C334.261 1.52867 333.67 1.54365 333.201 1.57425C332.732 1.60485 332.335 1.64065 332.008 1.68166C331.967 2.80274 331.927 3.91341 331.886 5.0143C331.845 6.11455 331.825 7.21544 331.825 8.31633V10.0592C332.11 10.121 332.421 10.162 332.758 10.1815Z" fill="white"/>
<path d="M352.738 17.061C352.066 15.369 351.347 13.5858 350.582 11.7102C349.818 9.8352 349.033 7.91921 348.228 5.9622C347.423 4.00585 346.654 2.15106 345.92 0.397827C346.205 0.438842 346.48 0.474645 346.745 0.505243C347.01 0.535842 347.265 0.55082 347.51 0.55082C347.754 0.55082 348.009 0.535842 348.274 0.505243C348.539 0.474645 348.814 0.439493 349.099 0.397827C349.547 1.74286 350.042 3.15495 350.582 4.63214C351.122 6.11064 351.693 7.61322 352.295 9.14185C352.896 10.6705 353.512 12.2199 354.144 13.7889C354.776 15.3592 355.418 16.9184 356.07 18.4672C356.437 17.632 356.834 16.699 357.263 15.6698C357.691 14.6405 358.123 13.5708 358.562 12.4595C359 11.3482 359.433 10.2174 359.862 9.06567C360.29 7.91465 360.703 6.80854 361.1 5.74866C361.497 4.68943 361.859 3.70051 362.185 2.78256C362.511 1.86525 362.786 1.07034 363.011 0.397827C363.459 0.500039 363.836 0.55082 364.142 0.55082C364.448 0.55082 364.825 0.500039 365.273 0.397827C363.683 3.94465 362.155 7.46088 360.687 10.9465C359.22 14.4321 357.813 17.9178 356.468 21.4028C356.142 21.3617 355.805 21.3416 355.459 21.3416C355.051 21.3416 354.715 21.3617 354.45 21.4028C353.981 20.2003 353.411 18.753 352.738 17.061Z" fill="white"/>
<path d="M370.241 4.35741C370.19 3.06316 370.134 1.74286 370.073 0.397827C370.338 0.438842 370.593 0.474645 370.837 0.505243C371.081 0.535842 371.326 0.55082 371.571 0.55082C371.816 0.55082 372.06 0.535842 372.305 0.505243C372.55 0.474645 372.804 0.439493 373.069 0.397827C373.008 1.74286 372.951 3.06316 372.901 4.35741C372.85 5.65166 372.825 6.97131 372.825 8.31699V13.576C372.825 14.9211 372.85 16.2466 372.901 17.5506C372.952 18.8553 373.009 20.1391 373.069 21.4028C372.6 21.3617 372.101 21.3416 371.571 21.3416C371.041 21.3416 370.542 21.3617 370.073 21.4028C370.134 20.1391 370.19 18.8553 370.241 17.5506C370.292 16.2466 370.318 14.9211 370.318 13.576V8.31699C370.318 6.97131 370.292 5.65166 370.241 4.35741Z" fill="white"/>
<path d="M395.282 20.684C394.885 20.878 394.405 21.0505 393.845 21.2035C393.284 21.3565 392.657 21.4938 391.965 21.6162C391.272 21.7386 390.548 21.7998 389.794 21.7998C388.183 21.7998 386.695 21.57 385.33 21.1117C383.964 20.6527 382.787 19.9548 381.799 19.0173C380.81 18.0805 380.036 16.9334 379.475 15.5779C378.914 14.2225 378.634 12.6782 378.634 10.9458C378.634 9.21341 378.914 7.66917 379.475 6.31371C380.035 4.95826 380.82 3.81179 381.829 2.87431C382.838 1.93682 384.046 1.22329 385.452 0.733713C386.859 0.244137 388.407 0 390.099 0C391.444 0 392.673 0.13736 393.784 0.412747C394.894 0.688133 395.878 1.01951 396.734 1.40622C396.571 1.69203 396.438 2.07874 396.336 2.56832C396.234 3.05724 396.153 3.46545 396.092 3.79096L395.909 3.85216C395.705 3.60737 395.42 3.33263 395.053 3.02664C394.685 2.72066 394.258 2.42574 393.768 2.13994C393.278 1.85413 392.728 1.61521 392.117 1.4212C391.506 1.22785 390.833 1.13084 390.099 1.13084C388.896 1.13084 387.78 1.32485 386.751 1.71156C385.721 2.09893 384.825 2.69528 384.06 3.5006C383.296 4.30593 382.7 5.3248 382.271 6.55785C381.844 7.79156 381.63 9.25378 381.63 10.9452C381.63 12.6372 381.844 14.0994 382.271 15.3325C382.7 16.5662 383.296 17.5844 384.06 18.3897C384.825 19.195 385.721 19.7914 386.751 20.1781C387.78 20.5655 388.896 20.7595 390.099 20.7595C390.833 20.7595 391.51 20.6677 392.132 20.4841C392.754 20.3005 393.325 20.0818 393.844 19.8265C394.364 19.572 394.833 19.2966 395.251 19.001C395.668 18.7055 396.02 18.4457 396.306 18.2218L396.428 18.3441L396.153 20.1482C395.97 20.3122 395.679 20.4906 395.282 20.684Z" fill="white"/>
<path d="M402.191 4.31119C402.14 3.00717 402.084 1.7025 402.023 0.397827C402.94 0.438842 403.853 0.474645 404.759 0.505243C405.666 0.535842 406.578 0.55082 407.496 0.55082C408.414 0.55082 409.32 0.535842 410.218 0.505243C411.114 0.474645 412.022 0.439493 412.939 0.397827C412.878 0.703813 412.847 1.00914 412.847 1.31513C412.847 1.62046 412.878 1.92645 412.939 2.23243C412.287 2.19207 411.69 2.15106 411.15 2.11005C410.61 2.06968 410.039 2.02867 409.438 1.98765C408.836 1.94729 408.179 1.91082 407.466 1.88022C406.752 1.84963 405.896 1.83466 404.898 1.83466C404.877 2.48699 404.852 3.10873 404.821 3.69987C404.791 4.29101 404.776 4.96352 404.776 5.71806C404.776 6.51298 404.78 7.2877 404.791 8.0416C404.801 8.79615 404.806 9.36711 404.806 9.75382C405.702 9.75382 406.508 9.74341 407.221 9.72322C407.935 9.70304 408.586 9.67765 409.178 9.64705C409.769 9.61645 410.314 9.58585 410.813 9.55525C411.313 9.52465 411.787 9.48949 412.235 9.44848C412.174 9.75447 412.144 10.0702 412.144 10.3964C412.144 10.7024 412.174 11.0077 412.235 11.3137C411.705 11.2525 411.089 11.2017 410.386 11.1607C409.683 11.1203 408.979 11.0943 408.276 11.0839C407.573 11.0741 406.91 11.0637 406.288 11.0533C405.666 11.0435 405.172 11.0383 404.806 11.0383C404.806 11.2219 404.801 11.4205 404.791 11.6346C404.78 11.8488 404.776 12.119 404.776 12.4445V13.6372V15.4718C404.776 16.6339 404.78 17.5923 404.791 18.3461C404.801 19.1007 404.816 19.6717 404.836 20.0584C405.509 20.0584 406.222 20.0584 406.977 20.0584C407.751 20.0584 408.51 20.0434 409.255 20.0128C409.999 19.9822 410.702 19.9418 411.364 19.8904C412.026 19.8396 412.602 19.7635 413.092 19.6612C413.051 19.8038 413.026 19.962 413.015 20.1352C413.005 20.3084 413 20.4666 413 20.6091C413 20.9353 413.031 21.2003 413.092 21.4041C412.175 21.363 411.262 21.3429 410.355 21.3429C409.448 21.3429 408.526 21.3429 407.588 21.3429C406.651 21.3429 405.723 21.3429 404.806 21.3429C403.889 21.3429 402.961 21.363 402.024 21.4041C402.085 20.1 402.141 18.8006 402.192 17.5057C402.243 16.2114 402.269 14.8918 402.269 13.5461V8.28704C402.268 6.9407 402.243 5.61651 402.191 4.31119Z" fill="white"/>
<path d="M419.069 18.544C419.344 18.9216 419.68 19.2627 420.078 19.5687C420.475 19.874 420.939 20.124 421.469 20.3174C421.999 20.5114 422.59 20.6077 423.243 20.6077C423.915 20.6077 424.522 20.4906 425.062 20.2562C425.602 20.0218 426.061 19.7054 426.438 19.3083C426.815 18.9112 427.105 18.4418 427.309 17.9021C427.512 17.3617 427.615 16.7862 427.615 16.1742C427.615 15.2374 427.375 14.4926 426.896 13.9425C426.417 13.3923 425.82 12.9334 425.107 12.5668C424.393 12.2003 423.624 11.8637 422.799 11.5577C421.973 11.2518 421.204 10.8696 420.49 10.4113C419.777 9.95295 419.18 9.36702 418.701 8.65349C418.222 7.93995 417.983 6.98229 417.983 5.77918C417.983 4.92307 418.136 4.14314 418.442 3.44002C418.748 2.7369 419.19 2.13079 419.772 1.62103C420.352 1.11192 421.05 0.714141 421.866 0.428337C422.681 0.143185 423.598 0.000610352 424.618 0.000610352C425.596 0.000610352 426.442 0.118443 427.156 0.352164C427.869 0.586535 428.532 0.948515 429.143 1.43744C428.96 1.78444 428.807 2.15162 428.684 2.53833C428.562 2.9257 428.44 3.41528 428.318 4.00577H427.951C427.849 3.72062 427.712 3.40941 427.538 3.07283C427.365 2.73625 427.13 2.42571 426.835 2.14056C426.539 1.8554 426.188 1.61582 425.78 1.42181C425.372 1.22846 424.883 1.13145 424.313 1.13145C423.742 1.13145 423.216 1.22325 422.738 1.40619C422.259 1.58978 421.841 1.84954 421.484 2.18612C421.128 2.52271 420.852 2.92505 420.659 3.3938C420.465 3.86319 420.369 4.37229 420.369 4.92242C420.369 5.88074 420.608 6.63464 421.087 7.18476C421.566 7.73553 422.162 8.19906 422.876 8.57601C423.589 8.95361 424.359 9.28955 425.184 9.58511C426.01 9.88068 426.779 10.242 427.492 10.6704C428.206 11.0981 428.802 11.6489 429.281 12.3214C429.76 12.9939 430 13.891 430 15.0121C430 15.9496 429.832 16.8363 429.495 17.6716C429.159 18.5075 428.67 19.236 428.028 19.8578C427.386 20.4802 426.601 20.9587 425.674 21.2952C424.746 21.6318 423.692 21.7998 422.509 21.7998C421.245 21.7998 420.221 21.6318 419.436 21.2952C418.651 20.9587 417.994 20.5765 417.464 20.1488C417.648 19.68 417.775 19.2575 417.846 18.8799C417.917 18.503 417.984 18.0192 418.046 17.4281H418.412C418.574 17.7946 418.794 18.167 419.069 18.544Z" fill="white"/>
</svg>
