<svg width="72" height="80" viewBox="0 0 72 80" fill="none" xmlns="http://www.w3.org/2000/svg">
<path d="M34.5899 77.4394V77.4249C34.8779 77.3084 35.0863 77.14 35.2136 76.9175C35.3402 76.695 35.4046 76.4314 35.4046 76.1274C35.4046 75.9293 35.3697 75.7441 35.2992 75.5727C35.2303 75.4013 35.1295 75.2504 34.9969 75.1201C34.865 74.9898 34.7066 74.887 34.5217 74.8123C34.336 74.7376 34.1284 74.6995 33.898 74.6995H31.1228V79.8745H32.2543V77.8524H33.3857C33.6699 77.8524 33.8738 77.9156 33.9988 78.0406C34.1238 78.1663 34.2049 78.3644 34.2436 78.6349C34.2724 78.8429 34.2944 79.06 34.3088 79.2871C34.3232 79.5141 34.3618 79.7099 34.4239 79.8745H35.5554C35.5031 79.8014 35.4637 79.7137 35.4364 79.6101C35.4107 79.5057 35.3909 79.396 35.3788 79.2802C35.3667 79.1636 35.3584 79.0501 35.3538 78.9389C35.3493 78.8284 35.344 78.7316 35.3394 78.6493C35.3296 78.519 35.3114 78.3888 35.2856 78.2585C35.2591 78.1274 35.2166 78.0086 35.159 77.8996C35.1015 77.7907 35.0272 77.6962 34.9362 77.6169C34.8445 77.5369 34.7294 77.4783 34.5899 77.4394ZM34.2724 76.3011C34.2724 76.5624 34.208 76.7506 34.0776 76.8664C33.948 76.983 33.7533 77.0409 33.4941 77.0409H32.2543V75.5841H33.4941C33.7533 75.5841 33.948 75.6405 34.0776 75.754C34.208 75.8683 34.2724 76.0504 34.2724 76.3011Z" fill="#231F20"/>
<path d="M40.3554 74.6998V75.6568H37.6378V76.7654H40.1318V77.6492H37.6378V78.9178H40.413V79.874H36.5063V74.6998H40.3554Z" fill="#231F20"/>
<path d="M44.2126 79.8345C43.967 79.9381 43.72 79.9907 43.4699 79.9907C43.0758 79.9907 42.7211 79.9221 42.4066 79.7842C42.0914 79.6463 41.8261 79.4566 41.6101 79.2151C41.3934 78.9736 41.2282 78.6894 41.113 78.364C40.997 78.0371 40.9395 77.6859 40.9395 77.3088C40.9395 76.9225 40.997 76.5636 41.113 76.2329C41.2282 75.9022 41.3934 75.6135 41.6101 75.3666C41.8261 75.1205 42.0914 74.927 42.4066 74.7868C42.7211 74.6474 43.0758 74.5765 43.4699 74.5765C43.7344 74.5765 43.9897 74.6161 44.2376 74.6961C44.4854 74.7761 44.7089 74.8935 44.9075 75.0481C45.1076 75.202 45.272 75.3933 45.4024 75.6203C45.5312 75.8474 45.6108 76.108 45.6396 76.4028H44.5581C44.4907 76.1133 44.3611 75.8954 44.1686 75.7506C43.9761 75.6059 43.7435 75.5335 43.4699 75.5335C43.2152 75.5335 42.9993 75.583 42.8212 75.682C42.6431 75.7811 42.4991 75.9137 42.3884 76.0805C42.2778 76.2474 42.1975 76.4371 42.1474 76.6489C42.0967 76.8623 42.0709 77.0817 42.0709 77.3088C42.0709 77.5267 42.0967 77.7377 42.1474 77.9427C42.1975 78.1484 42.2778 78.3328 42.3884 78.4981C42.4991 78.6619 42.6431 78.7937 42.8212 78.892C42.9993 78.9911 43.2152 79.0406 43.4699 79.0406C43.8442 79.0406 44.1345 78.9454 44.3384 78.7549C44.5422 78.5636 44.662 78.2871 44.6953 77.9251H43.5563V77.0771H45.7191V79.8741H44.9977L44.8825 79.2875C44.6809 79.5488 44.4573 79.7309 44.2126 79.8345Z" fill="#231F20"/>
<path d="M48.0023 79.8584H46.8708V74.6834H48.0023V79.8584Z" fill="#231F20"/>
<path d="M49.9732 78.6087C50.0361 78.7299 50.1187 78.8274 50.2218 78.9021C50.3256 78.9767 50.4468 79.0324 50.5855 79.0689C50.7257 79.1047 50.8697 79.123 51.019 79.123C51.1198 79.123 51.2274 79.1146 51.3426 79.0979C51.4578 79.0811 51.5662 79.0484 51.6677 79.0004C51.7685 78.9516 51.8526 78.8853 51.9201 78.8007C51.9868 78.7162 52.0209 78.6087 52.0209 78.4784C52.0209 78.3382 51.9762 78.2247 51.8875 78.1379C51.7981 78.0502 51.6821 77.9779 51.5374 77.9199C51.3934 77.862 51.2304 77.8118 51.047 77.7683C50.8652 77.7249 50.6802 77.6761 50.4923 77.6228C50.2998 77.5748 50.1126 77.5154 49.93 77.4453C49.7473 77.3759 49.5844 77.2845 49.4397 77.174C49.2957 77.0628 49.1797 76.9241 49.0903 76.7573C49.0016 76.5904 48.9569 76.3885 48.9569 76.1515C48.9569 75.8864 49.0138 75.6555 49.1267 75.4597C49.2388 75.2639 49.3866 75.1008 49.57 74.9705C49.7527 74.8403 49.9588 74.7435 50.1892 74.681C50.4203 74.6178 50.6515 74.5865 50.8818 74.5865C51.1501 74.5865 51.4093 74.617 51.6563 74.6772C51.9042 74.7374 52.1239 74.8357 52.3164 74.9705C52.5082 75.1062 52.6612 75.2784 52.7734 75.4886C52.8871 75.6989 52.9432 75.9534 52.9432 76.2529H51.8473C51.8382 76.099 51.8056 75.9709 51.7503 75.8696C51.695 75.7675 51.6215 75.6883 51.5305 75.6296C51.4388 75.5717 51.3343 75.5313 51.2168 75.5069C51.0993 75.4826 50.9705 75.4704 50.8311 75.4704C50.7401 75.4704 50.6484 75.4803 50.5575 75.4993C50.4658 75.5191 50.3832 75.5527 50.3089 75.6007C50.2339 75.6494 50.1725 75.7096 50.1248 75.782C50.077 75.8544 50.0528 75.9466 50.0528 76.0578C50.0528 76.1591 50.0717 76.2414 50.1104 76.3039C50.149 76.3671 50.2248 76.4251 50.3369 76.4784C50.4506 76.5317 50.6067 76.5843 50.806 76.6376C51.0054 76.691 51.2661 76.758 51.5881 76.8403C51.6836 76.8601 51.8178 76.8952 51.9883 76.9454C52.1588 76.9965 52.3278 77.0773 52.4968 77.1885C52.6643 77.2997 52.8098 77.4483 52.9325 77.6342C53.0553 77.8201 53.1167 78.0579 53.1167 78.3481C53.1167 78.5843 53.0705 78.8045 52.9795 79.0072C52.8878 79.2099 52.7522 79.3851 52.5718 79.5329C52.3922 79.68 52.1686 79.795 51.9019 79.8766C51.6351 79.9589 51.3259 80 50.9758 80C50.6916 80 50.4165 79.965 50.1498 79.8949C49.8838 79.8255 49.6481 79.715 49.4435 79.5657C49.2388 79.4156 49.0767 79.2244 48.9569 78.9927C48.8372 78.7611 48.7796 78.4853 48.7834 78.1668H49.88C49.88 78.3405 49.911 78.4883 49.9732 78.6087Z" fill="#231F20"/>
<path d="M53.3733 75.6565V74.6995H57.5899V75.6565H56.0477V79.8745H54.9155V75.6565H53.3733Z" fill="#231F20"/>
<path d="M62.0898 74.6998V75.6568H59.3729V76.7654H61.8662V77.6492H59.3729V78.9178H62.1474V79.874H58.2407V74.6998H62.0898Z" fill="#231F20"/>
<path d="M66.608 77.4394V77.4249C66.896 77.3084 67.1036 77.14 67.2317 76.9175C67.3582 76.695 67.4219 76.4314 67.4219 76.1274C67.4219 75.9293 67.3878 75.7441 67.3181 75.5727C67.2483 75.4013 67.1476 75.2504 67.0149 75.1201C66.8831 74.9898 66.7239 74.887 66.539 74.8123C66.3541 74.7376 66.1465 74.6995 65.9161 74.6995H63.1409V79.8745H64.2723V77.8524H65.4038C65.6872 77.8524 65.8918 77.9156 66.0169 78.0406C66.1419 78.1663 66.223 78.3644 66.2616 78.6349C66.2904 78.8429 66.3124 79.06 66.3268 79.2871C66.3412 79.5141 66.3799 79.7099 66.442 79.8745H67.5735C67.5212 79.8014 67.4818 79.7137 67.4552 79.6101C67.428 79.5057 67.409 79.396 67.3969 79.2802C67.3848 79.1636 67.3764 79.0501 67.3719 78.9389C67.3666 78.8284 67.362 78.7316 67.3575 78.6493C67.3476 78.519 67.3294 78.3888 67.3029 78.2585C67.2771 78.1274 67.2347 78.0086 67.1771 77.8996C67.1195 77.7907 67.0445 77.6962 66.9543 77.6169C66.8626 77.5369 66.7467 77.4783 66.608 77.4394ZM66.2904 76.3011C66.2904 76.5624 66.2253 76.7506 66.0957 76.8664C65.9661 76.983 65.7713 77.0409 65.5121 77.0409H64.2723V75.5841H65.5121C65.7713 75.5841 65.9661 75.6405 66.0957 75.754C66.2253 75.8683 66.2904 76.0504 66.2904 76.3011Z" fill="#231F20"/>
<path d="M71 3.96393V3.72164C71 2.21836 69.7882 1.00005 68.2922 1.00005C67.5822 1.00005 66.9372 1.27739 66.4537 1.72768C66.4537 1.72768 1.85029 66.7785 1.5752 67.0687C1.2425 67.42 1 68.1187 1 68.7572C1 70.2605 2.21254 71.4788 3.70775 71.4788C3.74262 71.4788 68.005 71.4849 68.005 71.4849C68.005 71.4849 71 71.4849 71 68.4737V3.96393Z" fill="#FFF200"/>
<path d="M71 3.96393V3.72164C71 2.21836 69.7882 1.00005 68.2922 1.00005C67.5822 1.00005 66.9372 1.27739 66.4537 1.72769C66.4537 1.72769 1.85029 66.7785 1.5752 67.0687C1.2425 67.42 1 68.1187 1 68.7572C1 70.2605 2.21254 71.4788 3.70775 71.4788C3.74262 71.4788 68.005 71.4849 68.005 71.4849C68.005 71.4849 71 71.4849 71 68.4737V3.96393Z" stroke="#FFF200" stroke-width="1.077"/>
<path d="M71 3.96393V3.72164C71 2.21836 69.7882 1.00005 68.2922 1.00005C67.5822 1.00005 66.9372 1.27739 66.4537 1.72769C66.4537 1.72769 1.85029 66.7785 1.5752 67.0687C1.2425 67.42 1 68.1187 1 68.7572C1 70.2605 2.21254 71.4788 3.70775 71.4788C3.74262 71.4788 68.005 71.4849 68.005 71.4849C68.005 71.4849 71 71.4849 71 68.4737V3.96393Z" stroke="#231F20" stroke-width="1.176"/>
<path d="M66.7662 48.4037C67.455 48.4037 67.9878 48.9554 67.9878 49.6716C67.9878 50.4045 67.455 50.9569 66.7662 50.9569C66.0697 50.9569 65.5362 50.4045 65.5362 49.6716C65.5362 48.9554 66.0697 48.4037 66.7662 48.4037ZM66.7662 51.1764C67.5778 51.1764 68.2591 50.5326 68.2591 49.6716C68.2591 48.8274 67.5778 48.1835 66.7662 48.1835C65.95 48.1835 65.2656 48.8274 65.2656 49.6716C65.2656 50.5326 65.95 51.1764 66.7662 51.1764ZM66.4562 49.0232H66.8139C66.9973 49.0232 67.1966 49.0598 67.1966 49.2921C67.1966 49.568 66.9776 49.5794 66.7381 49.5794H66.4562V49.0232ZM66.4562 49.8003H66.7427L67.2163 50.5524H67.5066L67.0087 49.7805C67.2678 49.7523 67.4672 49.6205 67.4672 49.3036C67.4672 48.9676 67.2716 48.803 66.8579 48.803H66.1849V50.5524H66.4562V49.8003ZM44.4304 49.2121C44.2614 49.1009 44.0916 49.0194 43.9204 48.9683C43.7491 48.9173 43.6157 48.8822 43.5195 48.8624C43.1959 48.7809 42.9344 48.7131 42.7343 48.659C42.5343 48.6056 42.3774 48.5531 42.2637 48.499C42.1508 48.4456 42.075 48.3877 42.0364 48.3245C41.997 48.2613 41.9788 48.179 41.9788 48.0769C41.9788 47.9656 42.0023 47.8734 42.05 47.8011C42.0985 47.7279 42.1607 47.6677 42.2349 47.619C42.3092 47.571 42.3933 47.5367 42.4843 47.5169C42.576 47.4978 42.6677 47.4887 42.7594 47.4887C42.8996 47.4887 43.0284 47.5001 43.1466 47.5245C43.2648 47.5489 43.3694 47.59 43.4611 47.6487C43.5528 47.7066 43.6263 47.7866 43.6816 47.8879C43.737 47.99 43.7696 48.1188 43.7794 48.2734H44.879C44.879 47.9732 44.8222 47.7172 44.7093 47.5062C44.5956 47.2959 44.4425 47.1222 44.25 46.9866C44.0568 46.8509 43.8362 46.7526 43.5877 46.6917C43.3391 46.6307 43.0799 46.601 42.8101 46.601C42.579 46.601 42.3471 46.6323 42.116 46.6955C41.8841 46.758 41.6764 46.8555 41.4938 46.9866C41.3104 47.1176 41.1618 47.2807 41.0489 47.4772C40.9352 47.6738 40.8784 47.9054 40.8784 48.1721C40.8784 48.4091 40.9231 48.6117 41.0125 48.7794C41.1012 48.9462 41.2187 49.0864 41.3634 49.1977C41.5082 49.3089 41.6719 49.3996 41.8553 49.4697C42.0387 49.5405 42.2266 49.6 42.4198 49.648C42.6078 49.7021 42.7935 49.7501 42.9769 49.7935C43.1595 49.8377 43.3239 49.888 43.4679 49.9466C43.6127 50.0045 43.7301 50.0777 43.8196 50.1645C43.909 50.2522 43.953 50.3657 43.953 50.5066C43.953 50.6377 43.9196 50.7451 43.8514 50.8305C43.784 50.915 43.6998 50.9813 43.599 51.0301C43.4975 51.0788 43.3884 51.1116 43.2732 51.1284C43.1572 51.1451 43.0488 51.1535 42.9473 51.1535C42.798 51.1535 42.6533 51.136 42.5138 51.0994C42.3736 51.0628 42.2524 51.0072 42.1485 50.9318C42.0447 50.8564 41.9614 50.7588 41.8985 50.6377C41.8356 50.5158 41.8045 50.368 41.8045 50.1943H40.7049C40.6996 50.5143 40.7579 50.7901 40.8784 51.0232C40.9989 51.2556 41.1618 51.4476 41.3672 51.597C41.5718 51.7478 41.8083 51.8583 42.0758 51.9284C42.3433 51.9985 42.6192 52.0335 42.9041 52.0335C43.2565 52.0335 43.5665 51.9924 43.834 51.9101C44.1015 51.8278 44.3258 51.7128 44.5062 51.565C44.6873 51.4164 44.8237 51.2411 44.9154 51.0377C45.0071 50.8335 45.0526 50.6133 45.0526 50.3756C45.0526 50.0845 44.9912 49.8461 44.8684 49.6594C44.7457 49.4727 44.5994 49.3234 44.4304 49.2121ZM31.2993 51.2556C31.5161 51.4979 31.7828 51.6884 32.0988 51.8263C32.4149 51.965 32.7703 52.0343 33.1659 52.0343C33.4167 52.0343 33.6653 51.9817 33.9108 51.8773C34.1571 51.773 34.3815 51.5901 34.5838 51.328L34.6997 51.9177H35.4227V49.11H33.253V49.9611H34.3959C34.3625 50.3245 34.2428 50.6019 34.0374 50.7939C33.8328 50.9851 33.5425 51.0811 33.1659 51.0811C32.9105 51.0811 32.693 51.0316 32.5149 50.9318C32.336 50.8327 32.1921 50.7002 32.0807 50.5356C31.97 50.371 31.8889 50.1851 31.8381 49.9786C31.7881 49.7729 31.7624 49.5611 31.7624 49.3432C31.7624 49.1154 31.7881 48.8944 31.8381 48.6811C31.8889 48.4677 31.97 48.2773 32.0807 48.1096C32.1921 47.9428 32.336 47.8094 32.5149 47.7096C32.693 47.6106 32.9105 47.561 33.1659 47.561C33.441 47.561 33.6744 47.6334 33.8676 47.779C34.0601 47.9245 34.1905 48.1432 34.2579 48.4335H35.3439C35.3144 48.1378 35.2348 47.8765 35.1052 47.6479C34.9748 47.4201 34.8089 47.2288 34.6088 47.0734C34.4087 46.9187 34.1844 46.8006 33.9366 46.7206C33.688 46.6406 33.4311 46.601 33.1659 46.601C32.7703 46.601 32.4149 46.6711 32.0988 46.8113C31.7828 46.9523 31.5161 47.1466 31.2993 47.3934C31.0826 47.641 30.9166 47.9306 30.7999 48.2628C30.6847 48.595 30.6264 48.9554 30.6264 49.3432C30.6264 49.7211 30.6847 50.0739 30.7999 50.4007C30.9166 50.7284 31.0826 51.0133 31.2993 51.2556ZM54.1724 53.6351H51.4268V52.7619C51.4268 52.1615 51.5435 51.7341 51.7769 51.4804C52.0103 51.2274 52.3983 51.1002 52.9402 51.1002C53.4441 51.1002 53.9291 51.1284 54.3967 51.1848V48.1995C54.0602 48.1805 53.7147 48.1569 53.36 48.1287C53.0053 48.1005 52.6499 48.0868 52.2952 48.0868C50.6712 48.0868 49.4564 48.4997 48.6538 49.3257C47.8505 50.1523 47.4489 51.2129 47.4489 52.5082V53.6351H45.0677V56.311H47.4489V68.1978H51.4268V56.311H54.1724V53.6351ZM57.7767 59.3533C57.7949 59.0714 57.8555 58.7529 57.9586 58.3956C58.0609 58.039 58.239 57.7007 58.4906 57.3815C58.7437 57.0622 59.0794 56.7948 59.5 56.5784C59.9198 56.3636 60.4473 56.2546 61.0824 56.2546C62.0532 56.2546 62.7777 56.5182 63.2536 57.044C63.7303 57.5689 64.0614 58.3392 64.2479 59.3533H57.7767ZM66.6714 55.8889C66.0833 55.082 65.3308 54.4382 64.4161 53.9589C63.5006 53.4804 62.4275 53.2412 61.1945 53.2412C60.0919 53.2412 59.0885 53.4385 58.1829 53.8324C57.2765 54.2264 56.4967 54.7666 55.8434 55.4523C55.1894 56.138 54.6855 56.9495 54.3308 57.8882C53.9754 58.8276 53.798 59.8417 53.798 60.9305C53.798 62.0574 53.9708 63.0898 54.3164 64.0293C54.662 64.968 55.1523 65.7748 55.7874 66.4514C56.4224 67.1273 57.1977 67.6484 58.1124 68.0141C59.0271 68.3806 60.0547 68.5635 61.1945 68.5635C62.8375 68.5635 64.2388 68.1886 65.3967 67.4374C66.5547 66.6861 67.4141 65.4373 67.9742 63.691H64.4722C64.3411 64.1413 63.9864 64.5687 63.4074 64.9725C62.8284 65.3763 62.1373 65.5783 61.3347 65.5783C60.2139 65.5783 59.3545 65.2872 58.7566 64.7043C58.1594 64.123 57.8328 63.1835 57.7767 61.8883H68.2265C68.3008 60.7614 68.2076 59.6817 67.9461 58.6493C67.6847 57.6169 67.2595 56.6965 66.6714 55.8889ZM40.4176 62.5641C40.4176 62.7896 40.3941 63.0906 40.3479 63.4654C40.3017 63.8411 40.1751 64.2121 39.9698 64.5779C39.7644 64.9443 39.4468 65.259 39.0172 65.5219C38.5875 65.7847 37.9804 65.9166 37.1961 65.9166C36.8785 65.9166 36.5701 65.8876 36.2715 65.8312C35.9729 65.7748 35.7115 65.6765 35.4871 65.5356C35.2628 65.3946 35.0855 65.2026 34.9551 64.9581C34.824 64.7142 34.7589 64.414 34.7589 64.0567C34.7589 63.6818 34.824 63.3717 34.9551 63.1272C35.0855 62.8833 35.2583 62.6814 35.4735 62.5222C35.688 62.3629 35.9396 62.2357 36.2298 62.1412C36.5186 62.0475 36.8134 61.9728 37.1119 61.9165C37.4295 61.8601 37.747 61.8128 38.0645 61.7755C38.3821 61.7382 38.6852 61.6909 38.9755 61.6345C39.2642 61.5782 39.5355 61.5081 39.7879 61.4235C40.0402 61.3389 40.2494 61.2216 40.4176 61.0715V62.5641ZM44.3963 64.9581V57.3815C44.3963 56.4992 44.2 55.7898 43.8074 55.255C43.4156 54.7193 42.9109 54.3018 42.2956 54.0016C41.6787 53.7014 40.9966 53.4995 40.2494 53.3959C39.5022 53.293 38.7648 53.2412 38.0365 53.2412C37.2332 53.2412 36.4352 53.3212 35.641 53.4804C34.8475 53.6404 34.1329 53.9079 33.4978 54.2835C32.8627 54.6591 32.3398 55.1567 31.9291 55.7761C31.5183 56.3956 31.2849 57.175 31.2288 58.1137H35.2075C35.2818 57.3251 35.5432 56.7613 35.9919 56.4237C36.4397 56.0862 37.0566 55.9163 37.8402 55.9163C38.1949 55.9163 38.5268 55.9407 38.8353 55.9872C39.143 56.0344 39.4143 56.1281 39.6477 56.2691C39.8811 56.41 40.0675 56.6074 40.2077 56.8603C40.3479 57.114 40.4176 57.4569 40.4176 57.8882C40.4366 58.3019 40.3153 58.6166 40.0539 58.8322C39.7924 59.0486 39.4378 59.2124 38.9891 59.3252C38.5412 59.4372 38.0267 59.5225 37.4484 59.5789C36.8694 59.6345 36.2806 59.7099 35.6834 59.8036C35.0855 59.8981 34.4929 60.0246 33.9048 60.1838C33.3159 60.3438 32.793 60.5831 32.3353 60.9023C31.8776 61.2216 31.5039 61.6483 31.2144 62.1839C30.925 62.7188 30.7802 63.3999 30.7802 64.2258C30.7802 64.9771 30.9068 65.6247 31.1584 66.1695C31.4115 66.7143 31.7608 67.1646 32.2095 67.5212C32.6581 67.8785 33.1803 68.1414 33.7782 68.3105C34.3761 68.4789 35.0203 68.5635 35.7115 68.5635C36.608 68.5635 37.4856 68.4317 38.3449 68.1688C39.2036 67.9067 39.9508 67.4473 40.5859 66.789C40.6048 67.0335 40.6374 67.2728 40.6844 67.5075C40.7306 67.7429 40.7913 67.9722 40.8663 68.1978H44.901C44.7138 67.8976 44.5827 67.4473 44.5084 66.8453C44.4334 66.2449 44.3963 65.6156 44.3963 64.9581ZM38.2692 48.0045H38.2836L38.9345 49.9101H37.5962L38.2692 48.0045ZM37.2999 50.7611H39.2316L39.6219 51.9177H40.8011L38.8694 46.7245H37.7053L35.7516 51.9177H36.8944L37.2999 50.7611ZM28.6287 60.6631C28.199 60.353 27.7087 60.1046 27.1585 59.9164C26.6068 59.729 26.0422 59.569 25.4632 59.4379C24.9024 59.3061 24.3522 59.1842 23.8104 59.0714C23.2685 58.9587 22.788 58.8322 22.3674 58.6912C21.9468 58.5503 21.6058 58.3674 21.3444 58.1419C21.0829 57.9164 20.9526 57.6261 20.9526 57.2687C20.9526 56.9685 21.0268 56.7293 21.1769 56.5502C21.3262 56.3719 21.5081 56.2363 21.7233 56.1418C21.9377 56.0481 22.1757 55.9872 22.4372 55.959C22.6986 55.9308 22.9419 55.9171 23.1654 55.9171C23.8755 55.9171 24.4917 56.0534 25.0153 56.3255C25.5375 56.5975 25.827 57.1186 25.8831 57.8882H29.6654C29.5904 56.9876 29.3615 56.2409 28.9788 55.6496C28.5961 55.0576 28.1149 54.5837 27.5367 54.2264C26.9569 53.8705 26.2983 53.6168 25.561 53.4667C24.8236 53.3166 24.0627 53.2412 23.2776 53.2412C22.4932 53.2412 21.7271 53.3113 20.9806 53.4522C20.2334 53.5932 19.5612 53.837 18.9632 54.1845C18.3653 54.5319 17.8848 55.0058 17.5203 55.607C17.1565 56.2081 16.9747 56.9777 16.9747 57.9164C16.9747 58.5548 17.105 59.095 17.3665 59.5362C17.6279 59.9774 17.9735 60.3438 18.4032 60.6349C18.8329 60.926 19.3224 61.1606 19.8742 61.3389C20.4251 61.5172 20.9897 61.6726 21.5694 61.8037C22.9881 62.1039 24.0946 62.4048 24.8888 62.705C25.6822 63.0052 26.0793 63.4563 26.0793 64.0567C26.0793 64.414 25.9952 64.7097 25.827 64.9443C25.6587 65.1798 25.4488 65.3664 25.1972 65.5074C24.9449 65.6484 24.6645 65.752 24.3568 65.8175C24.0483 65.883 23.7543 65.9158 23.4739 65.9158C23.0821 65.9158 22.7039 65.8693 22.3394 65.7748C21.9749 65.6811 21.6528 65.5356 21.3724 65.339C21.0928 65.1417 20.8639 64.888 20.6866 64.5779C20.5085 64.2685 20.4206 63.8975 20.4206 63.4654H16.6382C16.6753 64.4422 16.8951 65.2544 17.2967 65.9021C17.6984 66.5497 18.2115 67.0709 18.8374 67.4655C19.4627 67.8595 20.1773 68.1406 20.9806 68.3098C21.7831 68.4789 22.6054 68.5635 23.4458 68.5635C24.2681 68.5635 25.0752 68.4842 25.8694 68.3242C26.6629 68.165 27.3684 67.8877 27.9845 67.4937C28.6007 67.0991 29.1001 66.5779 29.4835 65.9303C29.8655 65.2826 30.0572 64.4796 30.0572 63.5218C30.0572 62.846 29.9269 62.2784 29.6654 61.8182C29.404 61.358 29.0584 60.9724 28.6287 60.6631Z" fill="#231F20"/>
</svg>
