<svg width="160" height="50" viewBox="0 0 160 50" fill="none" xmlns="http://www.w3.org/2000/svg">
<g clip-path="url(#clip0)">
<path d="M73.089 49.274H78.7654L78.7628 27.9438H73.087L73.089 49.274ZM56.3085 49.274L60.0297 42.8456L63.7145 49.274H70.6887L63.3808 38.3474L70.414 27.9305H63.7536L60.2595 34.1235L56.6826 27.9305H49.8256L56.819 38.4452L49.5111 49.274H56.3085ZM40.1962 27.3209C37.0576 27.3209 34.5051 28.3101 32.5392 30.2865C30.5727 32.2635 29.5894 35.1034 29.5894 38.8082C29.5894 42.761 30.6786 45.6142 32.8577 47.3697C35.0361 49.1232 37.5509 50 40.4001 50C43.8531 50 46.5381 48.9612 48.4563 46.881C49.6892 45.5725 50.3811 44.2844 50.5321 43.0162H44.8152C44.4821 43.6444 44.0975 44.135 43.6631 44.4881C42.8665 45.142 41.829 45.4693 40.5557 45.4693C39.3519 45.4693 38.3236 45.2009 37.4688 44.6646C36.0631 43.8011 35.3162 42.2975 35.2288 40.1525H50.8254C50.8525 38.3057 50.791 36.89 50.64 35.9075C50.3804 34.2313 49.811 32.7574 48.935 31.4872C47.961 30.0464 46.7274 28.9924 45.2343 28.324C43.7392 27.6555 42.0594 27.3209 40.1962 27.3209ZM40.1988 31.9316C41.5204 31.9316 42.6262 32.3164 43.5194 33.0841C44.4126 33.8531 44.9092 34.9785 45.0112 36.4636H35.3646C35.5678 35.0717 36.0658 33.9688 36.857 33.1528C37.6469 32.3389 38.7613 31.9316 40.1988 31.9316ZM27.8288 20.3576H22.2298V49.274H27.8288V20.3576ZM0 49.274H6.01085V37.1499H18.8397V32.1273H6.01085V25.4774H20.6467L20.6486 20.3569H0.0019864L0 49.274Z" fill="white"/>
<path d="M150.853 32.0506V45.2287C150.853 46.563 151.173 47.5529 151.809 48.1942C152.792 49.2013 154.626 49.6602 157.309 49.5682L159.999 49.471V45.2869C159.813 45.3007 159.624 45.3107 159.431 45.3166C159.239 45.3232 159.055 45.3265 158.884 45.3265C157.727 45.3265 157.037 45.2187 156.811 45.0025C156.584 44.787 156.473 44.2408 156.473 43.3621V32.0506H159.999V28.0634H156.473V22.094H150.853V28.0634H147.826V32.0506H150.853ZM134.836 36.488C132.627 36.7638 130.956 37.2226 129.817 37.864C127.743 39.0417 126.707 40.9473 126.707 43.5783C126.707 45.6082 127.352 47.176 128.641 48.2815C129.929 49.3884 131.563 49.9418 133.539 49.9418C135.089 49.9418 136.478 49.5947 137.709 48.8998C138.736 48.3106 139.645 47.5985 140.433 46.7601C140.474 47.2434 140.527 47.6752 140.592 48.0547C140.658 48.4349 140.778 48.8416 140.951 49.2733H147.127V48.4488C146.755 48.2782 146.477 48.0633 146.29 47.8001C146.104 47.539 145.993 47.0424 145.952 46.3071C145.924 45.3404 145.912 44.5146 145.912 43.8335V34.0137C145.912 31.435 144.985 29.6801 143.13 28.7511C141.276 27.8221 139.155 27.3573 136.767 27.3573C133.099 27.3573 130.511 28.2995 129.003 30.184C128.057 31.3894 127.522 32.928 127.404 34.7993H132.881C133.016 33.9747 133.284 33.3195 133.69 32.8361C134.255 32.1808 135.218 31.8542 136.578 31.8542C137.789 31.8542 138.707 32.0208 139.334 32.3547C139.959 32.6887 140.272 33.2943 140.272 34.1718C140.272 34.8918 139.865 35.4221 139.048 35.762C138.593 35.9584 137.836 36.123 136.781 36.254L134.836 36.488ZM140.253 40.9466C140.213 42.8185 139.67 44.1086 138.625 44.8154C137.579 45.5222 136.437 45.8753 135.195 45.8753C134.413 45.8753 133.748 45.6631 133.204 45.2373C132.657 44.8121 132.384 44.1211 132.384 43.165C132.384 42.0918 132.83 41.3004 133.725 40.7899C134.254 40.4891 135.124 40.2338 136.334 40.0242L137.627 39.7882C138.273 39.6698 138.782 39.5422 139.152 39.4053C139.522 39.2678 139.889 39.0879 140.253 38.8651V40.9466H140.253ZM114.315 27.2971C111.132 27.2971 108.542 28.2876 106.549 30.2653C104.554 32.245 103.557 35.0882 103.557 38.7957C103.557 42.7531 104.662 45.6102 106.87 47.3657C109.081 49.1219 111.63 49.9994 114.52 49.9994C118.022 49.9994 120.744 48.9593 122.691 46.8771C123.942 45.5679 124.642 44.2785 124.796 43.0083H118.999C118.66 43.6378 118.27 44.1271 117.83 44.4815C117.021 45.1368 115.971 45.4627 114.676 45.4627C113.457 45.4627 112.415 45.1956 111.546 44.6587C110.12 43.7932 109.363 42.2889 109.274 40.1406H125.092C125.119 38.2918 125.057 36.8755 124.906 35.8916C124.639 34.2134 124.064 32.7389 123.174 31.4667C122.188 30.0246 120.937 28.97 119.421 28.2995C117.909 27.6323 116.205 27.2971 114.315 27.2971ZM114.317 31.9131C115.658 31.9131 116.78 32.2979 117.685 33.0669C118.589 33.8365 119.093 34.9646 119.197 36.4503H109.415C109.621 35.0565 110.124 33.9516 110.927 33.137C111.73 32.3204 112.86 31.9131 114.317 31.9131ZM94.1628 27.2971C92.9716 27.2971 91.8374 27.5424 90.7601 28.0337C89.6815 28.5243 88.7326 29.3932 87.9136 30.6362V20.3576H82.2351V49.274H87.9136V37.6736C87.9136 35.8387 88.2989 34.427 89.0697 33.4365C89.8404 32.4467 90.972 31.9521 92.4618 31.9521C93.8999 31.9521 94.8752 32.4506 95.3891 33.4464C95.7844 34.1546 95.9817 35.0849 95.9817 36.2387V49.274H101.781V36.693C101.781 34.7794 101.714 33.4015 101.581 32.5558C101.45 31.7101 101.086 30.8888 100.491 30.0894C99.7896 29.1459 98.8937 28.4443 97.8032 27.9861C96.712 27.5272 95.499 27.2971 94.1628 27.2971Z" fill="#F6882D"/>
<path d="M75.5183 13.2396C75.6938 13.1497 76.4665 14.1507 76.6711 14.402C77.7491 15.7277 79.0581 17.3371 79.266 19.8789C79.3766 21.2291 79.1952 22.5145 78.2225 23.6141C77.1114 24.8691 75.1813 25.2096 73.8028 24.3547C72.4712 23.5288 71.9958 21.8572 72.7427 20.3345C73.0863 19.6342 73.5571 18.9823 74.0305 18.3508C75.3137 16.6396 75.6773 15.6517 75.4892 13.9074C75.468 13.7262 75.3422 13.3308 75.5183 13.2396Z" fill="white"/>
<path d="M68.9924 0.12763C68.5117 1.47321 71.3231 6.65981 69.5407 11.49C68.9752 13.0247 68.4269 14.5957 68.1594 16.1866C67.739 18.6834 68.2111 21.1597 69.922 22.5218C69.3533 20.7299 70.1392 18.8871 72.1508 16.471C74.4689 13.4201 73.8405 11.4576 73.6181 10.6377C73.4406 9.98177 73.1076 9.34832 73.0281 9.14995C72.948 8.95291 72.8354 8.52973 73.4664 8.6633C74.7828 8.94233 80.0043 12.825 81.2048 16.6442C83.364 8.31946 69.4738 -1.21663 68.9924 0.12763Z" fill="#F6882D"/>
</g>
<defs>
<clipPath id="clip0">
<rect width="160" height="50" fill="white"/>
</clipPath>
</defs>
</svg>
