<svg width="242" height="110" viewBox="0 0 242 110" fill="none" xmlns="http://www.w3.org/2000/svg">
<path d="M110.415 74.52H118.988L118.984 42.261H110.412L110.415 74.52ZM85.072 74.52L90.692 64.798L96.257 74.52H106.79L95.753 57.995L106.375 42.241H96.316L91.039 51.607L85.637 42.241H75.281L85.843 58.143L74.807 74.52H85.072ZM60.738 41.319C55.998 41.319 52.143 42.815 49.174 45.804C46.204 48.794 44.719 53.089 44.719 58.692C44.719 64.67 46.364 68.985 49.655 71.64C52.945 74.292 56.743 75.618 61.046 75.618C66.261 75.618 70.316 74.047 73.213 70.901C75.075 68.922 76.12 66.974 76.348 65.056H67.714C67.211 66.006 66.63 66.748 65.974 67.282C64.771 68.271 63.204 68.766 61.281 68.766C59.463 68.766 57.91 68.36 56.619 67.549C54.496 66.243 53.368 63.969 53.236 60.725H76.791C76.832 57.932 76.739 55.791 76.511 54.305C76.119 51.77 75.259 49.541 73.936 47.62C72.465 45.441 70.602 43.847 68.347 42.836C66.089 41.825 63.553 41.319 60.738 41.319ZM60.742 48.292C62.738 48.292 64.408 48.874 65.757 50.035C67.106 51.198 67.856 52.9 68.01 55.146H53.441C53.748 53.041 54.5 51.373 55.695 50.139C56.889 48.908 58.571 48.292 60.742 48.292ZM42.061 30.788H33.605V74.52H42.061V30.788ZM0.0310059 74.52H9.10901V56.184H28.484V48.588H9.10901V38.531H31.213L31.216 30.787H0.0340059L0.0310059 74.52Z" fill="#414042"/>
<path d="M227.86 48.472V68.402C227.86 70.42 228.342 71.917 229.304 72.887C230.788 74.41 233.557 75.104 237.609 74.965L241.673 74.818V68.49C241.391 68.511 241.106 68.526 240.814 68.535C240.524 68.545 240.247 68.55 239.988 68.55C238.241 68.55 237.199 68.387 236.857 68.06C236.515 67.734 236.347 66.908 236.347 65.579V48.472H241.673V42.442H236.347V33.414H227.86V42.442H223.288V48.472H227.86ZM203.669 55.183C200.333 55.6 197.809 56.294 196.09 57.264C192.957 59.045 191.393 61.927 191.393 65.906C191.393 68.976 192.366 71.347 194.313 73.019C196.258 74.693 198.726 75.53 201.711 75.53C204.052 75.53 206.15 75.005 208.008 73.954C209.559 73.063 210.932 71.986 212.123 70.718C212.184 71.449 212.265 72.102 212.363 72.676C212.463 73.251 212.644 73.866 212.905 74.519H222.232V73.272C221.671 73.014 221.25 72.689 220.968 72.291C220.687 71.896 220.519 71.145 220.458 70.033C220.415 68.571 220.397 67.322 220.397 66.292V51.441C220.397 47.541 218.997 44.887 216.196 43.482C213.395 42.077 210.192 41.374 206.586 41.374C201.046 41.374 197.137 42.799 194.86 45.649C193.431 47.472 192.624 49.799 192.445 52.629H200.717C200.921 51.382 201.326 50.391 201.938 49.66C202.792 48.669 204.247 48.175 206.3 48.175C208.129 48.175 209.516 48.427 210.462 48.932C211.407 49.437 211.879 50.353 211.879 51.68C211.879 52.769 211.264 53.571 210.031 54.085C209.343 54.382 208.201 54.631 206.607 54.829L203.669 55.183ZM211.852 61.926C211.791 64.757 210.971 66.708 209.393 67.777C207.813 68.846 206.088 69.38 204.213 69.38C203.032 69.38 202.027 69.059 201.205 68.415C200.379 67.772 199.967 66.727 199.967 65.281C199.967 63.658 200.641 62.461 201.992 61.689C202.791 61.234 204.105 60.848 205.933 60.531L207.886 60.174C208.862 59.995 209.63 59.802 210.189 59.595C210.748 59.387 211.302 59.115 211.851 58.778V61.926H211.852ZM172.678 41.283C167.871 41.283 163.96 42.781 160.949 45.772C157.937 48.766 156.431 53.066 156.431 58.673C156.431 64.658 158.099 68.979 161.435 71.634C164.773 74.29 168.623 75.617 172.988 75.617C178.277 75.617 182.388 74.044 185.328 70.895C187.217 68.915 188.275 66.965 188.508 65.044H179.752C179.24 65.996 178.652 66.736 177.987 67.272C176.765 68.263 175.179 68.756 173.224 68.756C171.382 68.756 169.808 68.352 168.497 67.54C166.342 66.231 165.2 63.956 165.065 60.707H188.954C188.995 57.911 188.901 55.769 188.673 54.281C188.271 51.743 187.402 49.513 186.058 47.589C184.568 45.408 182.679 43.813 180.39 42.799C178.105 41.79 175.532 41.283 172.678 41.283ZM172.681 48.264C174.706 48.264 176.401 48.846 177.768 50.009C179.133 51.173 179.895 52.879 180.051 55.126H165.278C165.589 53.018 166.349 51.347 167.561 50.115C168.773 48.88 170.48 48.264 172.681 48.264ZM142.242 41.283C140.443 41.283 138.73 41.654 137.103 42.397C135.474 43.139 134.041 44.453 132.804 46.333V30.788H124.228V74.52H132.804V56.976C132.804 54.201 133.386 52.066 134.55 50.568C135.714 49.071 137.423 48.323 139.673 48.323C141.845 48.323 143.318 49.077 144.094 50.583C144.691 51.654 144.989 53.061 144.989 54.806V74.52H153.748V55.493C153.748 52.599 153.646 50.515 153.446 49.236C153.247 47.957 152.698 46.715 151.799 45.506C150.74 44.079 149.387 43.018 147.74 42.325C146.092 41.631 144.26 41.283 142.242 41.283Z" fill="#F6882D"/>
<path d="M114.084 20.023C114.349 19.887 115.516 21.401 115.825 21.781C117.453 23.786 119.43 26.22 119.744 30.064C119.911 32.106 119.637 34.05 118.168 35.713C116.49 37.611 113.575 38.126 111.493 36.833C109.482 35.584 108.764 33.056 109.892 30.753C110.411 29.694 111.122 28.708 111.837 27.753C113.775 25.165 114.324 23.671 114.04 21.033C114.008 20.759 113.818 20.161 114.084 20.023Z" fill="#414042"/>
<path d="M104.229 0.193007C103.503 2.22801 107.749 10.072 105.057 17.377C104.203 19.698 103.375 22.074 102.971 24.48C102.336 28.256 103.049 32.001 105.633 34.061C104.774 31.351 105.961 28.564 108.999 24.91C112.5 20.296 111.551 17.328 111.215 16.088C110.947 15.096 110.444 14.138 110.324 13.838C110.203 13.54 110.033 12.9 110.986 13.102C112.974 13.524 120.86 19.396 122.673 25.172C125.934 12.582 104.955 -1.83999 104.229 0.193007Z" fill="#F6882D"/>
<path d="M0.0310059 82.806H241.672" stroke="#F6882D" stroke-width="0.955"/>
<path d="M237.713 105.545C240.353 105.545 241.725 104.176 241.725 102.463C241.725 98.492 235.41 99.97 235.41 97.734C235.41 96.823 236.278 96.127 237.673 96.127C238.982 96.127 240.101 96.676 240.712 97.417L241.452 96.319C240.63 95.496 239.405 94.843 237.673 94.843C235.241 94.843 233.872 96.191 233.872 97.776C233.872 101.556 240.186 100.035 240.186 102.508C240.186 103.523 239.341 104.262 237.778 104.262C236.382 104.262 235.094 103.586 234.421 102.802L233.598 103.944C234.629 105.041 236.043 105.545 237.713 105.545ZM229.943 99.551H223.246C223.33 97.987 224.406 96.147 226.584 96.147C228.908 96.147 229.92 98.028 229.943 99.551ZM226.774 105.545C228.442 105.545 229.816 104.996 230.828 103.986L230.069 102.95C229.265 103.773 228.084 104.24 226.922 104.24C224.725 104.24 223.373 102.634 223.246 100.71H231.502V100.31C231.502 97.248 229.69 94.842 226.604 94.842C223.69 94.842 221.581 97.226 221.581 100.183C221.58 103.373 223.752 105.545 226.774 105.545ZM215.79 105.545C217.649 105.545 218.748 104.787 219.528 103.773L218.47 102.802C217.795 103.71 216.929 104.132 215.874 104.132C213.699 104.132 212.349 102.443 212.349 100.183C212.349 97.922 213.7 96.253 215.874 96.253C216.929 96.253 217.795 96.654 218.47 97.583L219.528 96.612C218.748 95.599 217.649 94.842 215.79 94.842C212.75 94.842 210.703 97.163 210.703 100.183C210.703 103.225 212.75 105.545 215.79 105.545ZM207.701 95.095H206.121V105.292H207.701V95.095ZM206.898 93.635C207.492 93.635 207.975 93.171 207.975 92.579C207.975 91.987 207.492 91.504 206.898 91.504C206.332 91.504 205.845 91.988 205.845 92.579C205.845 93.17 206.332 93.635 206.898 93.635ZM199.805 105.292L204.049 95.095H202.319L198.938 103.458L195.54 95.095H193.831L198.075 105.292H199.805ZM189.54 105.292V98.07C190.005 97.245 191.335 96.445 192.307 96.445C192.559 96.445 192.751 96.465 192.942 96.508V94.883C191.546 94.883 190.363 95.663 189.541 96.739V95.095H187.96V105.292H189.54ZM183.416 99.551H176.721C176.805 97.987 177.882 96.147 180.06 96.147C182.382 96.147 183.398 98.028 183.416 99.551ZM180.25 105.545C181.918 105.545 183.291 104.996 184.303 103.986L183.543 102.95C182.744 103.773 181.559 104.24 180.397 104.24C178.2 104.24 176.848 102.634 176.721 100.71H184.979V100.31C184.979 97.248 183.165 94.842 180.081 94.842C177.165 94.842 175.056 97.226 175.056 100.183C175.055 103.373 177.228 105.545 180.25 105.545ZM167.473 105.545C171.274 105.545 172.664 103.458 172.664 101.409C172.664 96.149 164.323 97.965 164.323 94.796C164.323 93.464 165.528 92.557 167.219 92.557C168.76 92.557 170.24 93.085 171.295 94.246L172.348 92.958C171.168 91.714 169.5 90.998 167.346 90.998C164.576 90.998 162.511 92.579 162.511 94.902C162.511 99.93 170.852 97.924 170.852 101.557C170.852 102.634 170.049 103.987 167.536 103.987C165.55 103.987 164.03 103.014 163.101 101.98L162.067 103.31C163.227 104.618 165.021 105.545 167.473 105.545ZM148.761 104.027C146.71 104.027 145.486 102.381 145.486 100.141C145.486 97.881 146.711 96.253 148.761 96.253C150.028 96.253 151.254 97.013 151.803 97.901V102.357C151.254 103.246 150.027 104.027 148.761 104.027ZM148.527 109.432C151.021 109.432 153.384 108.378 153.384 104.997V95.096H151.802V96.634C150.978 95.516 149.753 94.842 148.378 94.842C145.696 94.842 143.839 96.865 143.839 100.141C143.839 103.436 145.717 105.419 148.378 105.419C149.817 105.419 151.063 104.639 151.802 103.605V105.061C151.802 107.3 150.218 108.125 148.527 108.125C147.07 108.125 146.054 107.745 145.211 106.73L144.41 107.914C145.611 109.094 146.796 109.432 148.527 109.432ZM140.84 105.292V98.134C140.84 95.916 139.721 94.842 137.588 94.842C136.068 94.842 134.673 95.726 133.953 96.571V95.095H132.373V105.292H133.953V97.836C134.547 97.013 135.73 96.253 136.975 96.253C138.351 96.253 139.258 96.823 139.258 98.618V105.292H140.84ZM128.781 95.095H127.199V105.292H128.781V95.095ZM127.979 93.635C128.571 93.635 129.056 93.171 129.056 92.579C129.056 91.987 128.571 91.504 127.979 91.504C127.409 91.504 126.924 91.988 126.924 92.579C126.924 93.17 127.408 93.635 127.979 93.635ZM123.141 105.545C124.071 105.545 124.641 105.272 125.041 104.892L124.576 103.71C124.367 103.942 123.943 104.132 123.501 104.132C122.805 104.132 122.467 103.585 122.467 102.823V96.485H124.535V95.095H122.467V92.306H120.885V95.095H119.196V96.485H120.885V103.161C120.885 104.682 121.643 105.545 123.141 105.545ZM112.584 104.407C111.104 104.407 110.07 103.478 110.07 102.189C110.07 100.879 111.103 99.95 112.584 99.95C113.703 99.95 114.781 100.374 115.394 101.218V103.141C114.781 103.986 113.703 104.407 112.584 104.407ZM116.975 105.292V98.283C116.975 95.812 115.182 94.842 113.027 94.842C111.358 94.842 110.048 95.389 108.952 96.528L109.69 97.627C110.598 96.656 111.59 96.211 112.815 96.211C114.295 96.211 115.394 96.994 115.394 98.367V100.202C114.569 99.253 113.409 98.81 112.014 98.81C110.28 98.81 108.446 99.885 108.446 102.165C108.446 104.386 110.28 105.544 112.014 105.544C113.387 105.544 114.549 105.059 115.394 104.131V105.291H116.975V105.292ZM104.475 99.551H97.778C97.863 97.987 98.941 96.147 101.116 96.147C103.439 96.147 104.455 98.028 104.475 99.551ZM101.307 105.545C102.975 105.545 104.348 104.996 105.362 103.986L104.602 102.95C103.799 103.773 102.616 104.24 101.456 104.24C99.257 104.24 97.905 102.634 97.778 100.71H106.036V100.31C106.036 97.248 104.223 94.842 101.138 94.842C98.222 94.842 96.113 97.226 96.113 100.183C96.111 103.373 98.283 105.545 101.307 105.545ZM93.047 105.292V91.208H91.297V97.27H83.059V91.208H81.307V105.292H83.059V98.831H91.297V105.292H93.047ZM70.833 99.551H64.136C64.219 97.987 65.297 96.147 67.473 96.147C69.797 96.147 70.811 98.028 70.833 99.551ZM67.664 105.545C69.332 105.545 70.706 104.996 71.717 103.986L70.959 102.95C70.156 103.773 68.974 104.24 67.811 104.24C65.614 104.24 64.263 102.634 64.136 100.71H72.393V100.31C72.393 97.248 70.581 94.842 67.495 94.842C64.58 94.842 62.47 97.226 62.47 100.183C62.469 103.373 64.642 105.545 67.664 105.545ZM59.468 91.208H57.886V105.292H59.468V91.208ZM46.902 105.292V103.773C47.662 104.808 48.91 105.545 50.345 105.545C53.007 105.545 54.885 103.522 54.885 100.204C54.885 96.95 53.007 94.842 50.345 94.842C48.95 94.842 47.725 95.516 46.902 96.634V91.208H45.321V105.292H46.902ZM46.902 102.528V97.902C47.452 97.014 48.698 96.254 49.945 96.254C52.015 96.254 53.24 97.945 53.24 100.205C53.24 102.466 52.015 104.133 49.945 104.133C48.698 104.132 47.452 103.415 46.902 102.528ZM41.728 95.095H40.147V105.292H41.728V95.095ZM40.926 93.635C41.518 93.635 42.003 93.171 42.003 92.579C42.003 91.987 41.518 91.504 40.926 91.504C40.358 91.504 39.872 91.988 39.872 92.579C39.872 93.17 40.357 93.635 40.926 93.635ZM37.905 105.292L33.978 100.056L37.671 95.095H35.835L33.007 98.979L30.177 95.095H28.34L32.035 100.056L28.129 105.292H29.944L33.006 101.112L36.067 105.292H37.905ZM24.921 99.551H18.223C18.307 97.987 19.385 96.147 21.561 96.147C23.885 96.147 24.898 98.028 24.921 99.551ZM21.75 105.545C23.42 105.545 24.794 104.996 25.805 103.986L25.047 102.95C24.244 103.773 23.062 104.24 21.899 104.24C19.702 104.24 18.351 102.634 18.223 100.71H26.481V100.31C26.481 97.248 24.667 94.842 21.583 94.842C18.667 94.842 16.559 97.226 16.559 100.183C16.558 103.373 18.729 105.545 21.75 105.545ZM13.555 91.208H11.974V105.292H13.555V91.208ZM1.75 105.292V98.871H9.078V97.312H1.75V92.768H9.227V91.207H0V105.291H1.75V105.292Z" fill="#414042"/>
</svg>
