<svg width="242" height="76" viewBox="0 0 242 76" fill="none" xmlns="http://www.w3.org/2000/svg">
<path d="M110.384 74.52H118.957L118.953 42.261H110.381L110.384 74.52ZM85.041 74.52L90.661 64.798L96.226 74.52H106.759L95.722 57.995L106.344 42.241H96.285L91.008 51.607L85.606 42.241H75.25L85.812 58.143L74.775 74.52H85.041ZM60.707 41.319C55.967 41.319 52.112 42.815 49.143 45.804C46.173 48.794 44.688 53.089 44.688 58.692C44.688 64.67 46.333 68.985 49.624 71.64C52.914 74.292 56.712 75.618 61.015 75.618C66.23 75.618 70.285 74.047 73.182 70.901C75.044 68.922 76.089 66.974 76.317 65.056H67.683C67.18 66.006 66.599 66.748 65.943 67.282C64.74 68.271 63.173 68.766 61.25 68.766C59.432 68.766 57.879 68.36 56.588 67.549C54.465 66.243 53.337 63.969 53.205 60.725H76.76C76.801 57.932 76.708 55.791 76.48 54.305C76.088 51.77 75.228 49.541 73.905 47.62C72.434 45.441 70.571 43.847 68.316 42.836C66.058 41.825 63.521 41.319 60.707 41.319ZM60.711 48.292C62.707 48.292 64.377 48.874 65.726 50.035C67.075 51.198 67.825 52.9 67.979 55.146H53.41C53.717 53.041 54.469 51.373 55.664 50.139C56.857 48.908 58.54 48.292 60.711 48.292ZM42.029 30.788H33.573V74.52H42.029V30.788ZM0 74.52H9.078V56.184H28.453V48.588H9.078V38.531H31.182L31.185 30.787H0.003L0 74.52Z" fill="#414042"/>
<path d="M227.829 48.472V68.402C227.829 70.42 228.311 71.917 229.273 72.887C230.757 74.41 233.526 75.104 237.578 74.965L241.642 74.818V68.49C241.36 68.511 241.075 68.526 240.783 68.535C240.493 68.545 240.216 68.55 239.957 68.55C238.21 68.55 237.168 68.387 236.826 68.06C236.484 67.734 236.316 66.908 236.316 65.579V48.472H241.642V42.442H236.316V33.414H227.829V42.442H223.257V48.472H227.829ZM203.638 55.183C200.302 55.6 197.778 56.294 196.059 57.264C192.926 59.045 191.362 61.927 191.362 65.906C191.362 68.976 192.335 71.347 194.282 73.019C196.227 74.693 198.695 75.53 201.68 75.53C204.021 75.53 206.119 75.005 207.977 73.954C209.528 73.063 210.901 71.986 212.092 70.718C212.153 71.449 212.234 72.102 212.332 72.676C212.432 73.251 212.613 73.866 212.874 74.519H222.201V73.272C221.64 73.014 221.219 72.689 220.937 72.291C220.656 71.896 220.488 71.145 220.427 70.033C220.384 68.571 220.366 67.322 220.366 66.292V51.441C220.366 47.541 218.966 44.887 216.165 43.482C213.364 42.077 210.161 41.374 206.555 41.374C201.015 41.374 197.106 42.799 194.829 45.649C193.4 47.472 192.593 49.799 192.414 52.629H200.686C200.89 51.382 201.295 50.391 201.907 49.66C202.761 48.669 204.216 48.175 206.269 48.175C208.098 48.175 209.485 48.427 210.431 48.932C211.376 49.437 211.848 50.353 211.848 51.68C211.848 52.769 211.233 53.571 210 54.085C209.312 54.382 208.17 54.631 206.576 54.829L203.638 55.183ZM211.82 61.926C211.759 64.757 210.939 66.708 209.361 67.777C207.781 68.846 206.056 69.38 204.181 69.38C203 69.38 201.995 69.059 201.173 68.415C200.347 67.772 199.935 66.727 199.935 65.281C199.935 63.658 200.609 62.461 201.96 61.689C202.759 61.234 204.073 60.848 205.901 60.531L207.854 60.174C208.83 59.995 209.598 59.802 210.157 59.595C210.716 59.387 211.27 59.115 211.819 58.778V61.926H211.82ZM172.646 41.283C167.839 41.283 163.928 42.781 160.917 45.772C157.905 48.766 156.399 53.066 156.399 58.673C156.399 64.658 158.067 68.979 161.403 71.634C164.741 74.29 168.591 75.617 172.956 75.617C178.245 75.617 182.356 74.044 185.296 70.895C187.185 68.915 188.243 66.965 188.476 65.044H179.72C179.208 65.996 178.62 66.736 177.955 67.272C176.733 68.263 175.147 68.756 173.192 68.756C171.35 68.756 169.776 68.352 168.465 67.54C166.31 66.231 165.168 63.956 165.033 60.707H188.922C188.963 57.911 188.869 55.769 188.641 54.281C188.239 51.743 187.37 49.513 186.026 47.589C184.536 45.408 182.647 43.813 180.358 42.799C178.074 41.79 175.501 41.283 172.646 41.283ZM172.649 48.264C174.674 48.264 176.369 48.846 177.736 50.009C179.101 51.173 179.863 52.879 180.019 55.126H165.246C165.557 53.018 166.317 51.347 167.529 50.115C168.742 48.88 170.449 48.264 172.649 48.264ZM142.211 41.283C140.412 41.283 138.699 41.654 137.072 42.397C135.443 43.139 134.01 44.453 132.773 46.333V30.788H124.197V74.52H132.773V56.976C132.773 54.201 133.355 52.066 134.519 50.568C135.683 49.071 137.392 48.323 139.642 48.323C141.814 48.323 143.287 49.077 144.063 50.583C144.66 51.654 144.958 53.061 144.958 54.806V74.52H153.717V55.493C153.717 52.599 153.615 50.515 153.415 49.236C153.216 47.957 152.667 46.715 151.768 45.506C150.709 44.079 149.356 43.018 147.709 42.325C146.061 41.631 144.229 41.283 142.211 41.283Z" fill="#F6882D"/>
<path d="M114.053 20.023C114.318 19.887 115.485 21.401 115.794 21.781C117.422 23.786 119.399 26.22 119.713 30.064C119.88 32.106 119.606 34.05 118.137 35.713C116.459 37.611 113.544 38.126 111.462 36.833C109.451 35.584 108.733 33.056 109.861 30.753C110.38 29.694 111.091 28.708 111.806 27.753C113.744 25.165 114.293 23.671 114.009 21.033C113.977 20.759 113.787 20.161 114.053 20.023Z" fill="#414042"/>
<path d="M104.197 0.193C103.471 2.228 107.717 10.072 105.025 17.377C104.171 19.698 103.343 22.074 102.939 24.48C102.304 28.256 103.017 32.001 105.601 34.061C104.742 31.351 105.929 28.564 108.967 24.91C112.468 20.296 111.519 17.328 111.183 16.088C110.915 15.096 110.412 14.138 110.292 13.838C110.171 13.54 110.001 12.9 110.954 13.102C112.942 13.524 120.828 19.396 122.641 25.172C125.902 12.582 104.924 -1.84 104.197 0.193Z" fill="#F6882D"/>
</svg>
