<?xml version="1.0" encoding="utf-8"?>
<!-- Generator: Adobe Illustrator 16.0.0, SVG Export Plug-In . SVG Version: 6.00 Build 0)  -->
<!DOCTYPE svg PUBLIC "-//W3C//DTD SVG 1.1//EN" "http://www.w3.org/Graphics/SVG/1.1/DTD/svg11.dtd">
<svg version="1.1" id="Layer_1" xmlns="http://www.w3.org/2000/svg" xmlns:xlink="http://www.w3.org/1999/xlink" x="0px" y="0px"
	 width="241.725px" height="109.432px" viewBox="0 0 241.725 109.432" enable-background="new 0 0 241.725 109.432"
	 xml:space="preserve">
<rect x="-61.197" y="-74.005" display="none" fill="#414042" stroke="#000000" stroke-miterlimit="10" width="364.093" height="257.442"/>
<g>
	<path fill="#FFFFFF" d="M110.415,74.52h8.573l-0.003-32.259h-8.573L110.415,74.52z M85.073,74.52l5.62-9.722l5.565,9.722h10.533
		L95.753,57.995l10.622-15.754H96.317l-5.278,9.366l-5.401-9.366H75.282l10.562,15.902L74.807,74.52H85.073z M60.738,41.319
		c-4.74,0-8.595,1.496-11.565,4.485c-2.969,2.99-4.455,7.285-4.455,12.888c0,5.978,1.645,10.293,4.935,12.948
		c3.291,2.652,7.088,3.978,11.391,3.978c5.215,0,9.27-1.571,12.167-4.717c1.862-1.979,2.907-3.927,3.135-5.845h-8.633
		c-0.503,0.95-1.084,1.692-1.741,2.226c-1.203,0.989-2.769,1.484-4.694,1.484c-1.818,0-3.371-0.406-4.662-1.217
		c-2.123-1.306-3.25-3.58-3.382-6.824h23.554c0.042-2.793-0.051-4.934-0.28-6.42c-0.392-2.535-1.252-4.764-2.576-6.685
		c-1.47-2.179-3.334-3.773-5.588-4.784C66.089,41.825,63.553,41.319,60.738,41.319 M60.743,48.292c1.995,0,3.666,0.582,5.014,1.743
		c1.348,1.163,2.099,2.865,2.253,5.111H53.442c0.307-2.105,1.058-3.773,2.253-5.007C56.888,48.908,58.571,48.292,60.743,48.292
		 M42.061,30.788h-8.457V74.52h8.457V30.788z M0.031,74.52h9.078V56.184h19.375v-7.596H9.109V38.531h22.104l0.003-7.744H0.034
		L0.031,74.52z"/>
	<path fill="#F6882D" d="M227.86,48.472v19.93c0,2.018,0.482,3.515,1.445,4.485c1.483,1.523,4.252,2.217,8.304,2.078l4.064-0.147
		v-6.328c-0.282,0.021-0.567,0.036-0.86,0.045c-0.29,0.01-0.567,0.015-0.826,0.015c-1.747,0-2.789-0.163-3.131-0.49
		c-0.341-0.326-0.51-1.152-0.51-2.481V48.472h5.327v-6.03h-5.327v-9.028h-8.487v9.028h-4.572v6.03H227.86z M203.669,55.183
		c-3.336,0.417-5.86,1.111-7.58,2.081c-3.132,1.781-4.697,4.663-4.697,8.642c0,3.07,0.973,5.441,2.921,7.113
		c1.945,1.674,4.413,2.511,7.398,2.511c2.34,0,4.439-0.525,6.296-1.576c1.552-0.891,2.924-1.968,4.115-3.236
		c0.061,0.731,0.142,1.384,0.241,1.958c0.1,0.575,0.281,1.19,0.542,1.843h9.327v-1.247c-0.561-0.258-0.982-0.583-1.264-0.981
		c-0.281-0.395-0.45-1.146-0.51-2.258c-0.042-1.462-0.061-2.711-0.061-3.741V51.441c0-3.9-1.401-6.554-4.201-7.959
		s-6.003-2.108-9.61-2.108c-5.541,0-9.449,1.425-11.725,4.275c-1.429,1.823-2.236,4.15-2.416,6.98h8.273
		c0.204-1.247,0.609-2.238,1.22-2.969c0.854-0.991,2.309-1.485,4.363-1.485c1.829,0,3.215,0.252,4.162,0.757
		c0.945,0.505,1.417,1.421,1.417,2.748c0,1.089-0.615,1.891-1.849,2.405c-0.687,0.297-1.829,0.546-3.423,0.744L203.669,55.183z
		 M211.851,61.926c-0.06,2.831-0.88,4.782-2.458,5.851c-1.58,1.069-3.306,1.603-5.18,1.603c-1.181,0-2.186-0.321-3.009-0.965
		c-0.826-0.643-1.238-1.688-1.238-3.134c0-1.623,0.674-2.82,2.025-3.592c0.799-0.455,2.114-0.841,3.942-1.158l1.953-0.357
		c0.976-0.179,1.745-0.372,2.303-0.579c0.558-0.208,1.113-0.48,1.662-0.817V61.926z M172.678,41.283
		c-4.806,0-8.718,1.498-11.728,4.489c-3.013,2.994-4.518,7.294-4.518,12.901c0,5.985,1.667,10.306,5.003,12.961
		c3.337,2.656,7.188,3.983,11.553,3.983c5.289,0,9.401-1.573,12.34-4.722c1.888-1.98,2.946-3.93,3.179-5.851h-8.755
		c-0.511,0.952-1.1,1.692-1.765,2.228c-1.221,0.991-2.808,1.484-4.762,1.484c-1.843,0-3.417-0.404-4.728-1.216
		c-2.155-1.309-3.296-3.584-3.431-6.833h23.888c0.041-2.796-0.053-4.938-0.282-6.426c-0.401-2.538-1.271-4.768-2.615-6.692
		c-1.49-2.181-3.378-3.776-5.667-4.79C178.105,41.79,175.532,41.283,172.678,41.283 M172.681,48.264c2.025,0,3.72,0.582,5.086,1.745
		c1.366,1.164,2.128,2.87,2.283,5.117h-14.772c0.311-2.108,1.071-3.779,2.283-5.011C168.773,48.88,170.48,48.264,172.681,48.264
		 M142.242,41.283c-1.798,0-3.511,0.371-5.138,1.114c-1.629,0.742-3.063,2.056-4.299,3.936V30.788h-8.576V74.52h8.576V56.976
		c0-2.775,0.582-4.91,1.746-6.408c1.164-1.497,2.873-2.245,5.123-2.245c2.172,0,3.645,0.754,4.421,2.26
		c0.597,1.071,0.895,2.478,0.895,4.223V74.52h8.758V55.493c0-2.894-0.101-4.978-0.301-6.257c-0.199-1.279-0.748-2.521-1.647-3.73
		c-1.059-1.427-2.413-2.488-4.06-3.181C146.091,41.631,144.259,41.283,142.242,41.283"/>
	<path fill="#FFFFFF" d="M114.083,20.023c0.265-0.136,1.433,1.378,1.742,1.758c1.628,2.005,3.605,4.439,3.919,8.283
		c0.167,2.042-0.107,3.986-1.576,5.649c-1.677,1.898-4.593,2.413-6.675,1.12c-2.01-1.249-2.729-3.777-1.601-6.08
		c0.519-1.059,1.23-2.045,1.945-3c1.938-2.588,2.487-4.082,2.203-6.72C114.008,20.759,113.818,20.161,114.083,20.023"/>
	<path fill="#F6882D" d="M104.229,0.193c-0.726,2.035,3.519,9.879,0.828,17.184c-0.854,2.321-1.682,4.697-2.086,7.103
		c-0.635,3.776,0.079,7.521,2.663,9.581c-0.86-2.71,0.327-5.497,3.366-9.151c3.501-4.614,2.552-7.582,2.216-8.822
		c-0.268-0.992-0.771-1.95-0.891-2.25c-0.121-0.298-0.29-0.938,0.663-0.736c1.987,0.422,9.874,6.294,11.686,12.07
		C125.934,12.582,104.956-1.84,104.229,0.193"/>
	<line fill="none" stroke="#F6882D" stroke-width="0.955" x1="0.031" y1="82.806" x2="241.672" y2="82.806"/>
	<path fill="#FFFFFF" d="M237.713,105.545c2.639,0,4.012-1.369,4.012-3.082c0-3.971-6.316-2.493-6.316-4.729
		c0-0.911,0.869-1.607,2.262-1.607c1.309,0,2.428,0.549,3.04,1.29l0.739-1.098c-0.822-0.823-2.046-1.476-3.779-1.476
		c-2.431,0-3.8,1.348-3.8,2.933c0,3.78,6.314,2.259,6.314,4.732c0,1.015-0.844,1.754-2.408,1.754c-1.395,0-2.683-0.676-3.357-1.46
		l-0.823,1.142C234.628,105.041,236.042,105.545,237.713,105.545 M229.943,99.551h-6.697c0.084-1.564,1.161-3.404,3.339-3.404
		C228.908,96.147,229.92,98.028,229.943,99.551 M226.774,105.545c1.668,0,3.042-0.549,4.054-1.559l-0.759-1.036
		c-0.804,0.823-1.986,1.29-3.147,1.29c-2.197,0-3.55-1.606-3.677-3.53h8.256v-0.4c0-3.062-1.812-5.468-4.898-5.468
		c-2.915,0-5.024,2.384-5.024,5.341C221.58,103.373,223.752,105.545,226.774,105.545 M215.79,105.545
		c1.859,0,2.958-0.758,3.738-1.772l-1.057-0.971c-0.675,0.908-1.541,1.33-2.597,1.33c-2.174,0-3.525-1.689-3.525-3.949
		c0-2.261,1.351-3.93,3.525-3.93c1.056,0,1.921,0.401,2.597,1.33l1.057-0.971c-0.781-1.013-1.879-1.77-3.738-1.77
		c-3.04,0-5.086,2.321-5.086,5.341C210.704,103.225,212.75,105.545,215.79,105.545 M207.701,95.095h-1.581v10.197h1.581V95.095z
		 M206.899,93.635c0.593,0,1.077-0.464,1.077-1.056s-0.484-1.075-1.077-1.075c-0.567,0-1.053,0.484-1.053,1.075
		S206.332,93.635,206.899,93.635 M199.805,105.292l4.244-10.197h-1.731l-3.38,8.363l-3.399-8.363h-1.708l4.244,10.197H199.805z
		 M189.54,105.292V98.07c0.465-0.825,1.795-1.625,2.766-1.625c0.253,0,0.445,0.02,0.635,0.063v-1.625
		c-1.395,0-2.579,0.78-3.401,1.856v-1.644h-1.582v10.197H189.54z M183.417,99.551h-6.696c0.084-1.564,1.161-3.404,3.339-3.404
		C182.382,96.147,183.398,98.028,183.417,99.551 M180.25,105.545c1.668,0,3.042-0.549,4.053-1.559l-0.76-1.036
		c-0.799,0.823-1.984,1.29-3.146,1.29c-2.198,0-3.55-1.606-3.676-3.53h8.258v-0.4c0-3.062-1.814-5.468-4.898-5.468
		c-2.917,0-5.026,2.384-5.026,5.341C175.054,103.373,177.228,105.545,180.25,105.545 M167.472,105.545
		c3.802,0,5.192-2.087,5.192-4.136c0-5.26-8.341-3.444-8.341-6.613c0-1.332,1.205-2.239,2.896-2.239
		c1.541,0,3.021,0.528,4.076,1.689l1.053-1.288c-1.179-1.244-2.847-1.96-5.002-1.96c-2.769,0-4.834,1.581-4.834,3.904
		c0,5.028,8.341,3.022,8.341,6.655c0,1.077-0.802,2.43-3.316,2.43c-1.986,0-3.506-0.973-4.435-2.007l-1.035,1.33
		C163.227,104.618,165.021,105.545,167.472,105.545 M148.761,104.027c-2.051,0-3.275-1.646-3.275-3.886
		c0-2.26,1.225-3.888,3.275-3.888c1.267,0,2.493,0.76,3.042,1.648v4.456C151.253,103.246,150.027,104.027,148.761,104.027
		 M148.527,109.432c2.494,0,4.857-1.054,4.857-4.435v-9.901h-1.582v1.538c-0.823-1.118-2.048-1.792-3.423-1.792
		c-2.682,0-4.539,2.023-4.539,5.299c0,3.295,1.877,5.278,4.539,5.278c1.438,0,2.684-0.78,3.423-1.814v1.456
		c0,2.239-1.583,3.064-3.275,3.064c-1.457,0-2.472-0.38-3.316-1.395l-0.801,1.184C145.612,109.094,146.796,109.432,148.527,109.432
		 M140.839,105.292v-7.158c0-2.218-1.119-3.292-3.251-3.292c-1.52,0-2.915,0.884-3.634,1.729v-1.476h-1.581v10.197h1.581v-7.456
		c0.593-0.823,1.776-1.583,3.022-1.583c1.375,0,2.283,0.57,2.283,2.365v6.674H140.839z M128.781,95.095h-1.582v10.197h1.582V95.095z
		 M127.979,93.635c0.591,0,1.077-0.464,1.077-1.056s-0.486-1.075-1.077-1.075c-0.57,0-1.056,0.484-1.056,1.075
		S127.409,93.635,127.979,93.635 M123.141,105.545c0.929,0,1.499-0.273,1.9-0.653l-0.464-1.182
		c-0.209,0.232-0.633,0.422-1.076,0.422c-0.697,0-1.035-0.547-1.035-1.309v-6.338h2.068v-1.39h-2.068v-2.789h-1.581v2.789h-1.69
		v1.39h1.69v6.676C120.885,104.682,121.643,105.545,123.141,105.545 M112.583,104.407c-1.479,0-2.514-0.929-2.514-2.218
		c0-1.31,1.034-2.239,2.514-2.239c1.119,0,2.197,0.424,2.81,1.268v1.923C114.781,103.986,113.703,104.407,112.583,104.407
		 M116.975,105.292v-7.009c0-2.471-1.793-3.441-3.949-3.441c-1.669,0-2.979,0.547-4.075,1.686l0.738,1.099
		c0.908-0.971,1.9-1.416,3.125-1.416c1.479,0,2.579,0.783,2.579,2.156v1.835c-0.825-0.949-1.986-1.392-3.38-1.392
		c-1.734,0-3.569,1.075-3.569,3.355c0,2.221,1.834,3.379,3.569,3.379c1.373,0,2.536-0.485,3.38-1.413v1.16H116.975z M104.475,99.551
		h-6.698c0.085-1.564,1.163-3.404,3.338-3.404C103.44,96.147,104.455,98.028,104.475,99.551 M101.306,105.545
		c1.669,0,3.042-0.549,4.055-1.559l-0.759-1.036c-0.803,0.823-1.986,1.29-3.147,1.29c-2.198,0-3.551-1.606-3.677-3.53h8.258v-0.4
		c0-3.062-1.814-5.468-4.899-5.468c-2.916,0-5.024,2.384-5.024,5.341C96.112,103.373,98.284,105.545,101.306,105.545
		 M93.047,105.292V91.208h-1.751v6.062h-8.238v-6.062h-1.751v14.084h1.751v-6.461h8.238v6.461H93.047z M70.833,99.551h-6.697
		c0.083-1.564,1.161-3.404,3.336-3.404C69.797,96.147,70.811,98.028,70.833,99.551 M67.664,105.545c1.668,0,3.042-0.549,4.054-1.559
		l-0.758-1.036c-0.803,0.823-1.986,1.29-3.148,1.29c-2.197,0-3.548-1.606-3.675-3.53h8.256v-0.4c0-3.062-1.812-5.468-4.898-5.468
		c-2.915,0-5.025,2.384-5.025,5.341C62.469,103.373,64.642,105.545,67.664,105.545 M59.468,91.208h-1.582v14.084h1.582V91.208z
		 M46.902,105.292v-1.519c0.76,1.035,2.007,1.772,3.443,1.772c2.663,0,4.54-2.023,4.54-5.341c0-3.254-1.877-5.362-4.54-5.362
		c-1.394,0-2.62,0.674-3.443,1.792v-5.426h-1.581v14.084H46.902z M46.902,102.528v-4.626c0.55-0.888,1.796-1.648,3.042-1.648
		c2.07,0,3.295,1.691,3.295,3.951c0,2.261-1.225,3.928-3.295,3.928C48.698,104.132,47.452,103.415,46.902,102.528 M41.728,95.095
		h-1.581v10.197h1.581V95.095z M40.926,93.635c0.592,0,1.077-0.464,1.077-1.056s-0.485-1.075-1.077-1.075
		c-0.569,0-1.054,0.484-1.054,1.075S40.357,93.635,40.926,93.635 M37.905,105.292l-3.927-5.236l3.694-4.961h-1.836l-2.829,3.884
		l-2.829-3.884h-1.837l3.695,4.961l-3.906,5.236h1.815l3.062-4.18l3.061,4.18H37.905z M24.921,99.551h-6.699
		c0.084-1.564,1.163-3.404,3.338-3.404C23.885,96.147,24.899,98.028,24.921,99.551 M21.75,105.545c1.669,0,3.044-0.549,4.055-1.559
		l-0.758-1.036c-0.803,0.823-1.986,1.29-3.148,1.29c-2.197,0-3.548-1.606-3.677-3.53h8.258v-0.4c0-3.062-1.814-5.468-4.898-5.468
		c-2.916,0-5.024,2.384-5.024,5.341C16.558,103.373,18.729,105.545,21.75,105.545 M13.555,91.208h-1.582v14.084h1.582V91.208z
		 M1.75,105.292v-6.421h7.328v-1.559H1.75v-4.544h7.477v-1.561H0v14.084H1.75z"/>
</g>
</svg>
