<?xml version="1.0" encoding="utf-8"?>
<!-- Generator: Adobe Illustrator 16.0.0, SVG Export Plug-In . SVG Version: 6.00 Build 0)  -->
<!DOCTYPE svg PUBLIC "-//W3C//DTD SVG 1.1//EN" "http://www.w3.org/Graphics/SVG/1.1/DTD/svg11.dtd">
<svg version="1.1" id="Layer_1" xmlns="http://www.w3.org/2000/svg" xmlns:xlink="http://www.w3.org/1999/xlink" x="0px" y="0px"
	 width="226.627px" height="253.267px" viewBox="0 0 226.627 253.267" enable-background="new 0 0 226.627 253.267"
	 xml:space="preserve">
<g>
	<g>
		<path fill="#FFF200" d="M195.259,177.1c-1.999,0-3.66,0.338-4.982,1.013c-1.323,0.676-2.382,1.512-3.175,2.51
			c-0.794,0.998-1.353,2.056-1.676,3.171c-0.324,1.115-0.515,2.113-0.573,2.994h20.371c-0.588-3.17-1.632-5.577-3.131-7.222
			C200.594,177.922,198.315,177.1,195.259,177.1z"/>
		<path fill="#FFF200" d="M121.972,193.945c-0.914,0.177-1.873,0.324-2.877,0.441c-1.002,0.117-2.006,0.265-3.008,0.44
			c-0.943,0.177-1.873,0.412-2.787,0.706s-1.711,0.69-2.389,1.19c-0.679,0.5-1.226,1.132-1.638,1.896
			c-0.414,0.765-0.619,1.734-0.619,2.91c0,1.117,0.205,2.059,0.619,2.822c0.412,0.765,0.973,1.367,1.681,1.809
			c0.707,0.441,1.533,0.75,2.479,0.926c0.943,0.176,1.916,0.264,2.92,0.264c2.477,0,4.395-0.411,5.752-1.234
			c1.355-0.822,2.359-1.808,3.008-2.954s1.047-2.308,1.195-3.483c0.146-1.176,0.221-2.116,0.221-2.822v-4.674
			c-0.531,0.471-1.195,0.839-1.99,1.103C123.741,193.549,122.886,193.77,121.972,193.945z"/>
		<polygon fill="#FFF200" points="119.582,150.39 119.534,150.39 117.316,156.645 121.729,156.645 		"/>
		<path fill="#FFF200" d="M217.313,0c-2.237,0-4.29,0.789-5.896,2.103L2.152,211.358C0.809,212.973,0,215.049,0,217.313
			c0,5.145,4.17,9.313,9.314,9.313h208c5.145,0,9.313-4.169,9.313-9.313v-208C226.627,4.169,222.458,0,217.313,0z M205.498,150.711
			h1.42l3.509,8.885l3.495-8.885h1.42v10.133h-0.969v-8.756h-0.028l-3.464,8.756h-0.908l-3.478-8.756h-0.028v8.756h-0.969V150.711z
			 M196.839,150.711h8.024v0.82h-3.535v9.312h-0.969v-9.312h-3.521V150.711z M117.675,146.191h3.839l6.366,17.031h-3.887
			l-1.288-3.781h-6.366l-1.335,3.781h-3.767L117.675,146.191z M90.758,207.411c-1.205,2.029-2.778,3.662-4.719,4.897
			c-1.94,1.236-4.16,2.104-6.659,2.604c-2.5,0.5-5.043,0.75-7.63,0.75c-2.646,0-5.233-0.265-7.762-0.792
			c-2.529-0.528-4.778-1.409-6.748-2.642c-1.971-1.232-3.588-2.861-4.852-4.887s-1.955-4.564-2.072-7.617h11.875
			c0,1.344,0.28,2.498,0.841,3.462c0.561,0.965,1.283,1.754,2.168,2.367s1.902,1.066,3.053,1.358s2.345,0.438,3.584,0.438
			c0.885,0,1.813-0.103,2.787-0.309c0.973-0.205,1.857-0.528,2.654-0.97s1.46-1.029,1.991-1.765
			c0.531-0.734,0.797-1.661,0.797-2.778c0-1.881-1.251-3.291-3.752-4.232c-2.501-0.94-5.987-1.881-10.459-2.822
			c-1.824-0.412-3.604-0.897-5.341-1.456s-3.28-1.293-4.634-2.204s-2.442-2.058-3.267-3.439s-1.235-3.072-1.235-5.071
			c0-2.939,0.572-5.351,1.719-7.232c1.146-1.881,2.66-3.365,4.541-4.453s3.996-1.852,6.348-2.293
			c2.351-0.441,4.761-0.662,7.229-0.662c2.468,0,4.862,0.235,7.185,0.706c2.321,0.471,4.393,1.266,6.215,2.383
			c1.822,1.118,3.336,2.604,4.541,4.457s1.925,4.192,2.16,7.017H79.442c-0.178-2.416-1.091-4.051-2.741-4.905
			s-3.596-1.282-5.836-1.282c-0.707,0-1.474,0.045-2.299,0.133c-0.826,0.088-1.577,0.279-2.255,0.573
			c-0.678,0.295-1.253,0.722-1.725,1.28s-0.707,1.309-0.707,2.25c0,1.118,0.411,2.03,1.235,2.736s1.897,1.279,3.222,1.721
			s2.839,0.838,4.546,1.191s3.442,0.735,5.208,1.146c1.824,0.412,3.604,0.913,5.34,1.501s3.281,1.367,4.635,2.338
			s2.441,2.178,3.266,3.619s1.236,3.222,1.236,5.339C92.567,202.866,91.963,205.382,90.758,207.411z M94.661,154.783
			c0-1.271,0.191-2.45,0.573-3.538c0.382-1.088,0.932-2.037,1.648-2.848c0.716-0.81,1.596-1.445,2.637-1.905
			c1.042-0.461,2.214-0.691,3.518-0.691c0.874,0,1.721,0.131,2.539,0.393s1.558,0.646,2.218,1.154
			c0.659,0.508,1.204,1.135,1.633,1.881c0.43,0.746,0.691,1.604,0.787,2.574h-3.576c-0.223-0.953-0.652-1.669-1.288-2.146
			c-0.636-0.477-1.406-0.715-2.312-0.715c-0.843,0-1.558,0.163-2.146,0.488c-0.588,0.326-1.064,0.763-1.431,1.311
			c-0.365,0.548-0.632,1.172-0.799,1.87c-0.167,0.699-0.25,1.422-0.25,2.168c0,0.715,0.083,1.41,0.25,2.085s0.433,1.282,0.798,1.822
			s0.842,0.973,1.43,1.299s1.303,0.488,2.145,0.488c1.238,0,2.195-0.312,2.87-0.938s1.068-1.531,1.18-2.719h-3.768v-2.797h7.158
			v9.195h-2.388l-0.382-1.931c-0.668,0.858-1.407,1.459-2.218,1.801s-1.629,0.513-2.456,0.513c-1.304,0-2.476-0.227-3.517-0.679
			c-1.042-0.453-1.92-1.076-2.635-1.87c-0.716-0.795-1.264-1.728-1.646-2.8C94.852,157.177,94.661,156.021,94.661,154.783z
			 M127.911,214.475c-0.236-0.701-0.428-1.417-0.574-2.147s-0.25-1.477-0.309-2.236c-2,2.063-4.352,3.508-7.057,4.333
			s-5.471,1.238-8.293,1.238c-2.175,0-4.204-0.266-6.087-0.794c-1.881-0.529-3.528-1.354-4.939-2.472
			c-1.412-1.117-2.515-2.529-3.309-4.235s-1.19-3.736-1.19-6.09c0-2.588,0.456-4.721,1.368-6.397s2.09-3.016,3.532-4.016
			c1.441-1,3.09-1.751,4.944-2.251c1.855-0.5,3.725-0.896,5.608-1.191c1.883-0.294,3.738-0.529,5.562-0.706
			c1.824-0.176,3.443-0.44,4.857-0.794c1.412-0.353,2.531-0.867,3.355-1.544s1.205-1.662,1.146-2.957
			c0-1.354-0.221-2.427-0.662-3.222c-0.441-0.794-1.031-1.411-1.768-1.853s-1.592-0.735-2.562-0.883
			c-0.973-0.146-2.02-0.221-3.139-0.221c-2.475,0-4.418,0.529-5.832,1.587s-2.239,2.82-2.474,5.288h-12.5
			c0.176-2.938,0.911-5.377,2.204-7.316s2.938-3.496,4.937-4.672c1.998-1.175,4.246-2.012,6.745-2.512
			c2.498-0.5,5.01-0.75,7.537-0.75c2.293,0,4.613,0.162,6.965,0.485c2.352,0.324,4.498,0.956,6.438,1.897s3.525,2.25,4.76,3.926
			c1.234,1.677,1.852,3.897,1.852,6.661v23.734c0,2.059,0.117,4.029,0.354,5.911c0.234,1.883,0.646,3.294,1.234,4.235
			L127.911,214.475z M141.693,160.346c-0.302,0.668-0.751,1.244-1.347,1.729c-0.597,0.484-1.335,0.862-2.218,1.133
			c-0.882,0.27-1.902,0.405-3.062,0.405c-0.938,0-1.849-0.115-2.73-0.347c-0.882-0.23-1.661-0.593-2.336-1.087
			c-0.676-0.493-1.212-1.122-1.609-1.886c-0.397-0.763-0.588-1.669-0.572-2.719h3.625c0,0.572,0.104,1.058,0.31,1.455
			c0.207,0.397,0.48,0.719,0.822,0.966c0.342,0.246,0.743,0.429,1.204,0.548c0.46,0.119,0.937,0.179,1.43,0.179
			c0.333,0,0.691-0.027,1.072-0.083s0.738-0.163,1.072-0.322s0.611-0.377,0.834-0.655s0.334-0.632,0.334-1.061
			c0-0.461-0.146-0.834-0.441-1.121c-0.293-0.285-0.679-0.523-1.154-0.715c-0.477-0.19-1.018-0.357-1.621-0.5
			c-0.604-0.144-1.215-0.303-1.834-0.478c-0.635-0.158-1.255-0.353-1.858-0.583s-1.144-0.529-1.62-0.895s-0.861-0.822-1.155-1.371
			c-0.294-0.548-0.44-1.211-0.44-1.99c0-0.874,0.187-1.633,0.56-2.276s0.861-1.18,1.465-1.608c0.604-0.43,1.286-0.747,2.049-0.953
			c0.762-0.207,1.524-0.311,2.286-0.311c0.89,0,1.743,0.1,2.561,0.298c0.818,0.198,1.545,0.521,2.18,0.965s1.14,1.013,1.513,1.704
			c0.373,0.69,0.56,1.529,0.56,2.515h-3.625c-0.031-0.509-0.139-0.93-0.321-1.264s-0.424-0.597-0.726-0.787
			c-0.301-0.19-0.646-0.325-1.034-0.405c-0.389-0.079-0.812-0.119-1.272-0.119c-0.301,0-0.603,0.032-0.903,0.096
			c-0.302,0.063-0.575,0.175-0.821,0.334c-0.245,0.158-0.447,0.357-0.605,0.596c-0.159,0.238-0.238,0.541-0.238,0.906
			c0,0.334,0.063,0.604,0.19,0.811c0.127,0.207,0.377,0.398,0.751,0.573c0.373,0.175,0.889,0.35,1.548,0.524
			s1.521,0.397,2.585,0.668c0.317,0.063,0.758,0.179,1.322,0.346s1.124,0.434,1.68,0.799c0.556,0.366,1.036,0.854,1.441,1.467
			c0.404,0.612,0.607,1.396,0.607,2.35C142.146,158.955,141.995,159.678,141.693,160.346z M171.539,161.225
			c-1.47-0.166-2.998-0.25-4.586-0.25c-1.705,0-2.925,0.397-3.659,1.19c-0.735,0.794-1.103,2.132-1.103,4.013v2.734h8.643v8.375
			h-8.643v37.188h-12.5v-37.188h-7.496v-8.375h7.496v-3.528c0-4.057,1.262-7.378,3.785-9.966c2.523-2.587,6.339-3.881,11.448-3.881
			c1.117,0,2.234,0.047,3.352,0.141s2.204,0.172,3.263,0.234V161.225z M217.746,194.725h-32.894
			c0.176,4.061,1.205,7.002,3.086,8.826s4.586,2.736,8.114,2.736c2.527,0,4.703-0.628,6.525-1.885s2.939-2.587,3.352-3.99h11.023
			c-1.764,5.466-4.469,9.374-8.113,11.725c-3.646,2.35-8.055,3.525-13.229,3.525c-3.586,0-6.818-0.574-9.697-1.721
			s-5.316-2.779-7.312-4.896c-1.996-2.117-3.536-4.646-4.622-7.588s-1.628-6.177-1.628-9.707c0-3.411,0.557-6.587,1.672-9.528
			s2.699-5.485,4.754-7.633c2.054-2.146,4.506-3.838,7.355-5.073s6.009-1.854,9.478-1.854c3.88,0,7.261,0.75,10.142,2.248
			c2.881,1.499,5.247,3.512,7.099,6.039s3.189,5.406,4.013,8.639S217.981,191.199,217.746,194.725z"/>
	</g>
	<g>
		<path fill="#FFF200" d="M105.729,235.86c0.764,0,1.451,0.123,2.063,0.369s1.138,0.583,1.575,1.012s0.771,0.925,1.002,1.488
			s0.346,1.17,0.346,1.821c0,1-0.211,1.865-0.633,2.595c-0.422,0.73-1.111,1.286-2.066,1.667v0.048
			c0.461,0.127,0.843,0.322,1.145,0.584c0.303,0.263,0.549,0.572,0.739,0.931s0.33,0.751,0.417,1.181
			c0.088,0.43,0.147,0.859,0.18,1.289c0.016,0.27,0.031,0.588,0.047,0.954c0.017,0.365,0.044,0.739,0.084,1.121
			s0.104,0.743,0.19,1.085c0.088,0.342,0.219,0.633,0.394,0.871h-3.744c-0.206-0.541-0.334-1.185-0.381-1.933
			c-0.048-0.747-0.119-1.463-0.215-2.147c-0.127-0.891-0.397-1.542-0.811-1.956c-0.413-0.413-1.088-0.62-2.025-0.62h-3.742v6.656
			h-3.75V235.86H105.729z M104.392,243.548c0.857,0,1.501-0.19,1.93-0.57c0.429-0.381,0.644-1,0.644-1.855
			c0-0.825-0.215-1.424-0.644-1.797c-0.429-0.372-1.072-0.559-1.93-0.559h-4.099v4.781H104.392z"/>
		<path fill="#FFF200" d="M126.502,235.86v3.141h-8.989v3.641h8.25v2.906h-8.25v4.188h9.18v3.141h-12.93V235.86H126.502z"/>
		<path fill="#FFF200" d="M139.309,252.738c-0.811,0.342-1.63,0.513-2.456,0.513c-1.304,0-2.476-0.227-3.517-0.679
			c-1.042-0.453-1.92-1.076-2.635-1.87c-0.716-0.795-1.265-1.728-1.646-2.8c-0.382-1.072-0.572-2.228-0.572-3.466
			c0-1.271,0.191-2.45,0.573-3.538s0.932-2.037,1.647-2.848c0.717-0.81,1.596-1.445,2.638-1.905
			c1.042-0.461,2.214-0.691,3.518-0.691c0.874,0,1.721,0.131,2.539,0.393s1.558,0.646,2.218,1.154
			c0.659,0.508,1.204,1.135,1.633,1.881c0.43,0.746,0.691,1.604,0.787,2.574h-3.576c-0.223-0.953-0.652-1.669-1.288-2.146
			c-0.636-0.477-1.407-0.715-2.312-0.715c-0.843,0-1.558,0.163-2.146,0.488c-0.588,0.326-1.064,0.763-1.431,1.311
			c-0.365,0.548-0.632,1.172-0.799,1.87c-0.167,0.699-0.25,1.422-0.25,2.168c0,0.715,0.083,1.41,0.25,2.085s0.433,1.282,0.798,1.822
			s0.842,0.973,1.43,1.299s1.303,0.488,2.145,0.488c1.238,0,2.195-0.312,2.87-0.938c0.676-0.625,1.068-1.531,1.18-2.719h-3.768
			v-2.797h7.158v9.195h-2.388l-0.382-1.932C140.858,251.796,140.119,252.396,139.309,252.738z"/>
		<path fill="#FFF200" d="M151.07,235.845v17.031h-3.75v-17.031H151.07z"/>
		<path fill="#FFF200" d="M157.228,248.684c0.207,0.397,0.48,0.719,0.822,0.966c0.342,0.246,0.743,0.429,1.203,0.548
			c0.461,0.119,0.938,0.179,1.431,0.179c0.333,0,0.69-0.027,1.072-0.083s0.739-0.163,1.072-0.322
			c0.334-0.159,0.612-0.377,0.834-0.655c0.223-0.278,0.334-0.632,0.334-1.061c0-0.461-0.147-0.834-0.44-1.121
			c-0.295-0.285-0.68-0.523-1.156-0.715c-0.477-0.19-1.016-0.357-1.619-0.5c-0.604-0.144-1.216-0.303-1.835-0.478
			c-0.635-0.158-1.255-0.353-1.858-0.583s-1.144-0.529-1.619-0.895c-0.477-0.365-0.862-0.822-1.156-1.371
			c-0.294-0.548-0.44-1.211-0.44-1.99c0-0.874,0.187-1.633,0.56-2.276s0.861-1.18,1.465-1.608c0.604-0.43,1.286-0.747,2.049-0.953
			c0.762-0.207,1.524-0.311,2.286-0.311c0.89,0,1.743,0.1,2.561,0.298c0.818,0.198,1.544,0.521,2.18,0.965s1.14,1.013,1.513,1.704
			c0.373,0.69,0.56,1.529,0.56,2.515h-3.625c-0.032-0.509-0.139-0.93-0.321-1.264c-0.182-0.334-0.424-0.597-0.725-0.787
			c-0.302-0.19-0.646-0.325-1.035-0.405c-0.389-0.079-0.812-0.119-1.272-0.119c-0.301,0-0.603,0.032-0.903,0.096
			c-0.302,0.063-0.575,0.175-0.82,0.334c-0.246,0.158-0.448,0.357-0.607,0.596c-0.158,0.238-0.237,0.541-0.237,0.906
			c0,0.334,0.063,0.604,0.19,0.811c0.127,0.207,0.377,0.398,0.75,0.573c0.374,0.175,0.89,0.35,1.549,0.524s1.521,0.397,2.585,0.668
			c0.317,0.063,0.759,0.179,1.322,0.346s1.124,0.434,1.68,0.799c0.556,0.366,1.036,0.854,1.441,1.467s0.607,1.396,0.607,2.35
			c0,0.779-0.151,1.502-0.453,2.17s-0.751,1.244-1.347,1.729c-0.597,0.485-1.336,0.862-2.218,1.133s-1.903,0.405-3.063,0.405
			c-0.938,0-1.848-0.115-2.729-0.347c-0.882-0.23-1.661-0.593-2.336-1.087c-0.676-0.493-1.212-1.122-1.609-1.886
			c-0.397-0.763-0.589-1.669-0.572-2.719h3.625C156.918,247.801,157.021,248.286,157.228,248.684z"/>
		<path fill="#FFF200" d="M168.497,239.001v-3.141h13.955v3.141h-5.103v13.875h-3.75v-13.875H168.497z"/>
		<path fill="#FFF200" d="M197.146,235.86v3.141h-8.989v3.641h8.25v2.906h-8.25v4.188h9.18v3.141h-12.93V235.86H197.146z"/>
		<path fill="#FFF200" d="M209.047,235.86c0.763,0,1.451,0.123,2.063,0.369s1.137,0.583,1.574,1.012s0.771,0.925,1.003,1.488
			c0.23,0.563,0.346,1.17,0.346,1.821c0,1-0.211,1.865-0.633,2.595c-0.422,0.73-1.11,1.286-2.066,1.667v0.048
			c0.461,0.127,0.843,0.322,1.145,0.584c0.302,0.263,0.549,0.572,0.739,0.931c0.191,0.358,0.33,0.751,0.418,1.181
			c0.087,0.43,0.146,0.859,0.178,1.289c0.017,0.27,0.032,0.588,0.048,0.954c0.017,0.365,0.044,0.739,0.084,1.121
			s0.104,0.743,0.19,1.085c0.088,0.342,0.219,0.633,0.394,0.871h-3.743c-0.207-0.541-0.334-1.185-0.382-1.933
			c-0.048-0.747-0.12-1.463-0.215-2.147c-0.127-0.891-0.397-1.542-0.811-1.956c-0.413-0.413-1.088-0.62-2.025-0.62h-3.742v6.656
			h-3.75V235.86H209.047z M207.71,243.548c0.857,0,1.501-0.19,1.93-0.57c0.429-0.381,0.644-1,0.644-1.855
			c0-0.825-0.215-1.424-0.644-1.797c-0.429-0.372-1.072-0.559-1.93-0.559h-4.099v4.781H207.71z"/>
	</g>
</g>
</svg>
