<?xml version="1.0" encoding="UTF-8" standalone="no"?>
<!-- Created with Inkscape (http://www.inkscape.org/) -->

<svg
   xmlns:dc="http://purl.org/dc/elements/1.1/"
   xmlns:cc="http://creativecommons.org/ns#"
   xmlns:rdf="http://www.w3.org/1999/02/22-rdf-syntax-ns#"
   xmlns:svg="http://www.w3.org/2000/svg"
   xmlns="http://www.w3.org/2000/svg"
   xmlns:sodipodi="http://sodipodi.sourceforge.net/DTD/sodipodi-0.dtd"
   xmlns:inkscape="http://www.inkscape.org/namespaces/inkscape"
   id="svg2816"
   version="1.1"
   inkscape:version="0.47 r22583"
   width="120"
   height="135"
   xml:space="preserve"
   sodipodi:docname="gsr_rules_of_registration.pdf"><metadata
     id="metadata2822"><rdf:RDF><cc:Work
         rdf:about=""><dc:format>image/svg+xml</dc:format><dc:type
           rdf:resource="http://purl.org/dc/dcmitype/StillImage" /><dc:title></dc:title></cc:Work></rdf:RDF></metadata><defs
     id="defs2820"><inkscape:perspective
       sodipodi:type="inkscape:persp3d"
       inkscape:vp_x="0 : 0.5 : 1"
       inkscape:vp_y="0 : 1000 : 0"
       inkscape:vp_z="1 : 0.5 : 1"
       inkscape:persp3d-origin="0.5 : 0.33333333 : 1"
       id="perspective2824" /><clipPath
       clipPathUnits="userSpaceOnUse"
       id="clipPath2836"><path
         d="m 12.4961,624.78 437.9529,0 0,-612.2839 -437.9529,0 0,612.2839 z"
         id="path2838" /></clipPath><clipPath
       clipPathUnits="userSpaceOnUse"
       id="clipPath2882"><path
         d="m 12.496,12.496 437.953,0 0,612.283 -437.953,0 0,-612.283 z"
         id="path2884" /></clipPath><clipPath
       clipPathUnits="userSpaceOnUse"
       id="clipPath2958"><path
         d="m 328.559,34.465 97.087,0 0,112.63 -97.087,0 0,-112.63 z"
         id="path2960" /></clipPath><clipPath
       clipPathUnits="userSpaceOnUse"
       id="clipPath3000"><path
         d="m 328.559,38.996 93.543,0 0,104.272 -93.543,0 0,-104.272 z"
         id="path3002" /></clipPath><clipPath
       clipPathUnits="userSpaceOnUse"
       id="clipPath3016"><path
         d="m 328.559,34.465 97.087,0 0,112.63 -97.087,0 0,-112.63 z"
         id="path3018" /></clipPath><clipPath
       clipPathUnits="userSpaceOnUse"
       id="clipPath3028"><path
         d="m 0,0 462.945,0 0,637.276 L 0,637.276 0,0 z"
         id="path3030" /></clipPath><clipPath
       clipPathUnits="userSpaceOnUse"
       id="clipPath3158"><path
         d="m 0,0 462.945,0 0,637.276 L 0,637.276 0,0 z"
         id="path3160" /></clipPath></defs><sodipodi:namedview
     pagecolor="#ffffff"
     bordercolor="#666666"
     borderopacity="1"
     objecttolerance="10"
     gridtolerance="10"
     guidetolerance="10"
     inkscape:pageopacity="0"
     inkscape:pageshadow="2"
     inkscape:window-width="1280"
     inkscape:window-height="944"
     id="namedview2818"
     showgrid="false"
     inkscape:zoom="2.3700878"
     inkscape:cx="-7.2255721"
     inkscape:cy="8.0891078"
     inkscape:window-x="-8"
     inkscape:window-y="-8"
     inkscape:window-maximized="1"
     inkscape:current-layer="g2826" /><g
     id="g2826"
     inkscape:groupmode="layer"
     inkscape:label="gsr_rules_of_registration"
     transform="matrix(1.25,0,0,-1.25,-410.69875,183.74488)"><g
       id="g3224"
       transform="translate(1.0740465,1.7900775)"><g
         id="g2954"><g
           clip-path="url(#clipPath2958)"
           id="g2956"><g
             transform="translate(373.4696,42.3564)"
             id="g2962"><path
               id="path2964"
               style="fill:#231f20;fill-opacity:1;fill-rule:nonzero;stroke:none"
               d="M 0,0 0,0.019 C 0.38,0.172 0.655,0.393 0.823,0.685 0.99,0.977 1.075,1.323 1.075,1.722 1.075,1.982 1.029,2.225 0.936,2.45 0.845,2.675 0.712,2.873 0.537,3.044 0.363,3.215 0.154,3.35 -0.09,3.448 -0.335,3.546 -0.609,3.596 -0.913,3.596 l -3.662,0 0,-6.792 1.493,0 0,2.654 1.493,0 c 0.375,0 0.644,-0.083 0.809,-0.247 0.165,-0.165 0.272,-0.425 0.323,-0.78 0.038,-0.273 0.067,-0.558 0.086,-0.856 0.019,-0.298 0.07,-0.555 0.152,-0.771 l 1.493,0 C 1.205,-3.1 1.153,-2.985 1.117,-2.849 1.083,-2.712 1.057,-2.568 1.041,-2.416 1.025,-2.263 1.014,-2.114 1.008,-1.968 1.002,-1.823 0.995,-1.696 0.989,-1.588 0.976,-1.417 0.952,-1.246 0.918,-1.075 0.883,-0.903 0.827,-0.747 0.751,-0.604 0.675,-0.461 0.577,-0.337 0.457,-0.233 0.336,-0.128 0.184,-0.051 0,0 m -0.419,1.494 c 0,-0.343 -0.085,-0.59 -0.257,-0.742 -0.171,-0.153 -0.428,-0.229 -0.77,-0.229 l -1.636,0 0,1.912 1.636,0 c 0.342,0 0.599,-0.074 0.77,-0.223 0.172,-0.15 0.257,-0.389 0.257,-0.718" /></g><g
             transform="translate(381.0776,45.9522)"
             id="g2966"><path
               id="path2968"
               style="fill:#231f20;fill-opacity:1;fill-rule:nonzero;stroke:none"
               d="m 0,0 0,-1.256 -3.586,0 0,-1.455 3.291,0 0,-1.16 -3.291,0 0,-1.665 3.662,0 0,-1.255 -5.155,0 0,6.791 L 0,0 z" /></g><g
             transform="translate(386.1674,39.2132)"
             id="g2970"><path
               id="path2972"
               style="fill:#231f20;fill-opacity:1;fill-rule:nonzero;stroke:none"
               d="m 0,0 c -0.324,-0.136 -0.65,-0.205 -0.98,-0.205 -0.52,0 -0.988,0.09 -1.403,0.271 -0.416,0.181 -0.766,0.43 -1.051,0.747 -0.286,0.317 -0.504,0.69 -0.656,1.117 -0.153,0.429 -0.229,0.89 -0.229,1.385 0,0.507 0.076,0.978 0.229,1.412 0.152,0.434 0.37,0.813 0.656,1.137 0.285,0.323 0.635,0.577 1.051,0.761 0.415,0.183 0.883,0.276 1.403,0.276 0.349,0 0.686,-0.052 1.013,-0.157 C 0.36,6.639 0.655,6.485 0.917,6.282 1.181,6.08 1.398,5.829 1.57,5.531 1.74,5.233 1.845,4.891 1.883,4.504 l -1.427,0 C 0.367,4.884 0.196,5.17 -0.058,5.36 -0.312,5.55 -0.619,5.645 -0.98,5.645 -1.316,5.645 -1.601,5.58 -1.836,5.45 -2.071,5.32 -2.261,5.146 -2.407,4.927 -2.553,4.708 -2.659,4.459 -2.725,4.181 -2.792,3.901 -2.826,3.613 -2.826,3.315 c 0,-0.286 0.034,-0.563 0.101,-0.832 0.066,-0.27 0.172,-0.512 0.318,-0.729 0.146,-0.215 0.336,-0.388 0.571,-0.517 0.235,-0.13 0.52,-0.195 0.856,-0.195 0.494,0 0.877,0.125 1.146,0.375 0.269,0.251 0.427,0.614 0.471,1.089 l -1.503,0 0,1.113 2.854,0 0,-3.671 -0.952,0 -0.152,0.77 C 0.618,0.375 0.323,0.136 0,0" /></g><path
             id="path2974"
             style="fill:#231f20;fill-opacity:1;fill-rule:nonzero;stroke:none"
             d="m 391.168,39.182 -1.493,0 0,6.792 1.493,0 0,-6.792 z" /><g
             transform="translate(393.7686,40.8219)"
             id="g2976"><path
               id="path2978"
               style="fill:#231f20;fill-opacity:1;fill-rule:nonzero;stroke:none"
               d="m 0,0 c 0.083,-0.159 0.192,-0.287 0.328,-0.385 0.137,-0.098 0.297,-0.171 0.48,-0.219 0.185,-0.047 0.375,-0.071 0.572,-0.071 0.133,0 0.275,0.011 0.427,0.033 0.152,0.022 0.295,0.065 0.429,0.128 0.133,0.064 0.244,0.151 0.333,0.262 C 2.657,-0.141 2.702,0 2.702,0.171 2.702,0.355 2.643,0.504 2.526,0.618 2.408,0.733 2.255,0.828 2.064,0.904 1.874,0.98 1.659,1.046 1.417,1.103 1.177,1.16 0.933,1.224 0.685,1.294 0.431,1.357 0.184,1.435 -0.057,1.527 c -0.241,0.091 -0.456,0.211 -0.647,0.356 -0.19,0.146 -0.343,0.328 -0.461,0.547 -0.117,0.219 -0.176,0.484 -0.176,0.795 0,0.348 0.075,0.651 0.224,0.908 0.148,0.257 0.343,0.471 0.585,0.642 0.241,0.171 0.513,0.298 0.817,0.38 0.305,0.083 0.61,0.124 0.914,0.124 0.354,0 0.696,-0.04 1.022,-0.119 C 2.548,5.081 2.838,4.952 3.092,4.775 3.345,4.597 3.547,4.371 3.695,4.095 3.845,3.819 3.919,3.485 3.919,3.092 l -1.446,0 C 2.461,3.294 2.418,3.462 2.345,3.595 2.272,3.729 2.175,3.833 2.055,3.91 1.934,3.986 1.796,4.039 1.641,4.071 1.486,4.103 1.316,4.119 1.132,4.119 1.012,4.119 0.891,4.106 0.771,4.081 0.65,4.055 0.541,4.011 0.443,3.948 0.344,3.884 0.263,3.805 0.2,3.71 0.137,3.615 0.105,3.494 0.105,3.348 0.105,3.215 0.13,3.107 0.181,3.025 0.232,2.942 0.332,2.866 0.48,2.796 0.63,2.726 0.836,2.657 1.099,2.587 1.362,2.517 1.706,2.429 2.131,2.321 2.257,2.295 2.434,2.249 2.659,2.183 2.884,2.116 3.107,2.01 3.33,1.864 3.551,1.718 3.743,1.523 3.905,1.279 4.067,1.035 4.148,0.723 4.148,0.342 4.148,0.032 4.087,-0.257 3.967,-0.523 3.846,-0.789 3.667,-1.019 3.429,-1.213 3.192,-1.406 2.897,-1.557 2.545,-1.664 2.193,-1.772 1.785,-1.826 1.323,-1.826 c -0.375,0 -0.738,0.046 -1.09,0.138 -0.351,0.091 -0.662,0.236 -0.932,0.432 -0.27,0.197 -0.484,0.448 -0.642,0.752 C -1.499,-0.2 -1.575,0.162 -1.57,0.58 l 1.447,0 C -0.123,0.352 -0.082,0.158 0,0" /></g><g
             transform="translate(398.2553,44.6967)"
             id="g2980"><path
               id="path2982"
               style="fill:#231f20;fill-opacity:1;fill-rule:nonzero;stroke:none"
               d="m 0,0 0,1.256 5.564,0 0,-1.256 -2.035,0 0,-5.536 -1.494,0 L 2.035,0 0,0 z" /></g><g
             transform="translate(409.7571,45.9522)"
             id="g2984"><path
               id="path2986"
               style="fill:#231f20;fill-opacity:1;fill-rule:nonzero;stroke:none"
               d="m 0,0 0,-1.256 -3.585,0 0,-1.455 3.29,0 0,-1.16 -3.29,0 0,-1.665 3.661,0 0,-1.255 -5.155,0 0,6.791 L 0,0 z" /></g><g
             transform="translate(415.719,42.3564)"
             id="g2988"><path
               id="path2990"
               style="fill:#231f20;fill-opacity:1;fill-rule:nonzero;stroke:none"
               d="M 0,0 0,0.019 C 0.38,0.172 0.654,0.393 0.823,0.685 0.99,0.977 1.074,1.323 1.074,1.722 1.074,1.982 1.029,2.225 0.937,2.45 0.845,2.675 0.712,2.873 0.537,3.044 0.363,3.215 0.153,3.35 -0.091,3.448 -0.335,3.546 -0.609,3.596 -0.913,3.596 l -3.662,0 0,-6.792 1.493,0 0,2.654 1.493,0 c 0.374,0 0.644,-0.083 0.809,-0.247 0.165,-0.165 0.272,-0.425 0.323,-0.78 0.038,-0.273 0.067,-0.558 0.086,-0.856 0.019,-0.298 0.07,-0.555 0.152,-0.771 l 1.493,0 C 1.205,-3.1 1.153,-2.985 1.118,-2.849 1.082,-2.712 1.057,-2.568 1.041,-2.416 1.025,-2.263 1.014,-2.114 1.008,-1.968 1.001,-1.823 0.995,-1.696 0.989,-1.588 0.976,-1.417 0.952,-1.246 0.917,-1.075 0.883,-0.903 0.827,-0.747 0.751,-0.604 0.675,-0.461 0.576,-0.337 0.457,-0.233 0.336,-0.128 0.183,-0.051 0,0 m -0.419,1.494 c 0,-0.343 -0.086,-0.59 -0.257,-0.742 -0.171,-0.153 -0.428,-0.229 -0.77,-0.229 l -1.636,0 0,1.912 1.636,0 c 0.342,0 0.599,-0.074 0.77,-0.223 0.171,-0.15 0.257,-0.389 0.257,-0.718" /></g><g
             transform="translate(421.5144,138.7908)"
             id="g2992"><path
               id="path2994"
               style="fill:#fff200;fill-opacity:1;fill-rule:nonzero;stroke:none"
               d="m 0,0 0,0.318 c 0,1.973 -1.599,3.572 -3.573,3.572 -0.937,0 -1.788,-0.364 -2.426,-0.955 0,0 -85.247,-85.377 -85.61,-85.758 -0.439,-0.461 -0.759,-1.378 -0.759,-2.216 0,-1.973 1.6,-3.572 3.573,-3.572 0.046,0 84.843,-0.008 84.843,-0.008 0,0 3.952,0 3.952,3.952 L 0,0 z" /></g></g></g><g
         id="g2996"><g
           clip-path="url(#clipPath3000)"
           id="g2998"><g
             transform="translate(421.5144,138.7908)"
             id="g3004"><path
               id="path3006"
               style="fill:none;stroke:#fff200;stroke-width:1.07700002;stroke-linecap:butt;stroke-linejoin:miter;stroke-miterlimit:4;stroke-opacity:1;stroke-dasharray:none"
               d="m 0,0 0,0.318 c 0,1.973 -1.599,3.572 -3.573,3.572 -0.937,0 -1.788,-0.364 -2.426,-0.955 0,0 -85.247,-85.377 -85.61,-85.758 -0.439,-0.461 -0.759,-1.378 -0.759,-2.216 0,-1.973 1.6,-3.572 3.573,-3.572 0.046,0 84.843,-0.008 84.843,-0.008 0,0 3.952,0 3.952,3.952 L 0,0 z" /></g><g
             transform="translate(421.5144,138.7908)"
             id="g3008"><path
               id="path3010"
               style="fill:none;stroke:#231f20;stroke-width:1.176;stroke-linecap:butt;stroke-linejoin:miter;stroke-miterlimit:4;stroke-opacity:1;stroke-dasharray:none"
               d="m 0,0 0,0.318 c 0,1.973 -1.599,3.572 -3.573,3.572 -0.937,0 -1.788,-0.364 -2.426,-0.955 0,0 -85.247,-85.377 -85.61,-85.758 -0.439,-0.461 -0.759,-1.378 -0.759,-2.216 0,-1.973 1.6,-3.572 3.573,-3.572 0.046,0 84.843,-0.008 84.843,-0.008 0,0 3.952,0 3.952,3.952 L 0,0 z" /></g></g></g><g
         id="g3012"><g
           clip-path="url(#clipPath3016)"
           id="g3014"><g
             transform="translate(415.9276,80.4651)"
             id="g3020"><path
               id="path3022"
               style="fill:#231f20;fill-opacity:1;fill-rule:nonzero;stroke:none"
               d="m 0,0 c 0.909,0 1.612,-0.724 1.612,-1.664 0,-0.962 -0.703,-1.687 -1.612,-1.687 -0.919,0 -1.623,0.725 -1.623,1.687 C -1.623,-0.724 -0.919,0 0,0 m 0,-3.639 c 1.071,0 1.97,0.845 1.97,1.975 0,1.108 -0.899,1.953 -1.97,1.953 -1.077,0 -1.98,-0.845 -1.98,-1.953 0,-1.13 0.903,-1.975 1.98,-1.975 m -0.409,2.826 0.472,0 c 0.242,0 0.505,-0.048 0.505,-0.353 0,-0.362 -0.289,-0.377 -0.605,-0.377 l -0.372,0 0,0.73 z m 0,-1.02 0.378,0 0.625,-0.987 0.383,0 -0.657,1.013 c 0.342,0.037 0.605,0.21 0.605,0.626 0,0.441 -0.258,0.657 -0.804,0.657 l -0.888,0 0,-2.296 0.358,0 0,0.987 z m -29.064,0.772 c -0.223,0.146 -0.447,0.253 -0.673,0.32 -0.226,0.067 -0.402,0.113 -0.529,0.139 -0.427,0.107 -0.772,0.196 -1.036,0.267 -0.264,0.07 -0.471,0.139 -0.621,0.21 -0.149,0.07 -0.249,0.146 -0.3,0.229 -0.052,0.083 -0.076,0.191 -0.076,0.325 0,0.146 0.031,0.267 0.094,0.362 0.064,0.096 0.146,0.175 0.244,0.239 0.098,0.063 0.209,0.108 0.329,0.134 0.121,0.025 0.242,0.037 0.363,0.037 0.185,0 0.355,-0.015 0.511,-0.047 0.156,-0.032 0.294,-0.086 0.415,-0.163 0.121,-0.076 0.218,-0.181 0.291,-0.314 0.073,-0.134 0.116,-0.303 0.129,-0.506 l 1.451,0 c 0,0.394 -0.075,0.73 -0.224,1.007 -0.15,0.276 -0.352,0.504 -0.606,0.682 -0.255,0.178 -0.546,0.307 -0.874,0.387 -0.328,0.08 -0.67,0.119 -1.026,0.119 -0.305,0 -0.611,-0.041 -0.916,-0.124 -0.306,-0.082 -0.58,-0.21 -0.821,-0.382 -0.242,-0.172 -0.438,-0.386 -0.587,-0.644 -0.15,-0.258 -0.225,-0.562 -0.225,-0.912 0,-0.311 0.059,-0.577 0.177,-0.797 0.117,-0.219 0.272,-0.403 0.463,-0.549 0.191,-0.146 0.407,-0.265 0.649,-0.357 0.242,-0.093 0.49,-0.171 0.745,-0.234 0.248,-0.071 0.493,-0.134 0.735,-0.191 0.241,-0.058 0.458,-0.124 0.648,-0.201 0.191,-0.076 0.346,-0.172 0.464,-0.286 0.118,-0.115 0.176,-0.264 0.176,-0.449 0,-0.172 -0.044,-0.313 -0.134,-0.425 -0.089,-0.111 -0.2,-0.198 -0.333,-0.262 -0.134,-0.064 -0.278,-0.107 -0.43,-0.129 -0.153,-0.022 -0.296,-0.033 -0.43,-0.033 -0.197,0 -0.388,0.023 -0.572,0.071 -0.185,0.048 -0.345,0.121 -0.482,0.22 -0.137,0.099 -0.247,0.227 -0.33,0.386 -0.083,0.16 -0.124,0.354 -0.124,0.582 l -1.451,0 c -0.007,-0.42 0.07,-0.782 0.229,-1.088 0.159,-0.305 0.374,-0.557 0.645,-0.753 0.27,-0.198 0.582,-0.343 0.935,-0.435 0.353,-0.092 0.717,-0.138 1.093,-0.138 0.465,0 0.874,0.054 1.227,0.162 0.353,0.108 0.649,0.259 0.887,0.453 0.239,0.195 0.419,0.425 0.54,0.692 0.121,0.268 0.181,0.557 0.181,0.869 0,0.382 -0.081,0.695 -0.243,0.94 -0.162,0.245 -0.355,0.441 -0.578,0.587 M -46.8,-3.743 c 0.286,-0.318 0.638,-0.568 1.055,-0.749 0.417,-0.182 0.886,-0.273 1.408,-0.273 0.331,0 0.659,0.069 0.983,0.206 0.325,0.137 0.621,0.377 0.888,0.721 l 0.153,-0.774 0.954,0 0,3.685 -2.863,0 0,-1.117 1.508,0 c -0.044,-0.477 -0.202,-0.841 -0.473,-1.093 -0.27,-0.251 -0.653,-0.377 -1.15,-0.377 -0.337,0 -0.624,0.065 -0.859,0.196 -0.236,0.13 -0.426,0.304 -0.573,0.52 -0.146,0.216 -0.253,0.46 -0.32,0.731 -0.066,0.27 -0.1,0.548 -0.1,0.834 0,0.299 0.034,0.589 0.1,0.869 0.067,0.28 0.174,0.53 0.32,0.75 0.147,0.219 0.337,0.394 0.573,0.525 0.235,0.13 0.522,0.195 0.859,0.195 0.363,0 0.671,-0.095 0.926,-0.286 0.254,-0.191 0.426,-0.478 0.515,-0.859 l 1.433,0 c -0.039,0.388 -0.144,0.731 -0.315,1.031 -0.172,0.299 -0.391,0.55 -0.655,0.754 -0.264,0.203 -0.56,0.358 -0.887,0.463 -0.328,0.105 -0.667,0.157 -1.017,0.157 -0.522,0 -0.991,-0.092 -1.408,-0.276 -0.417,-0.185 -0.769,-0.44 -1.055,-0.764 -0.286,-0.325 -0.505,-0.705 -0.659,-1.141 -0.152,-0.436 -0.229,-0.909 -0.229,-1.418 0,-0.496 0.077,-0.959 0.229,-1.388 0.154,-0.43 0.373,-0.804 0.659,-1.122 m 30.182,-3.123 -3.623,0 0,1.146 c 0,0.788 0.154,1.349 0.462,1.682 0.308,0.332 0.82,0.499 1.535,0.499 0.665,0 1.305,-0.037 1.922,-0.111 l 0,3.918 c -0.444,0.025 -0.9,0.056 -1.368,0.093 -0.468,0.037 -0.937,0.055 -1.405,0.055 -2.143,0 -3.746,-0.542 -4.805,-1.626 -1.06,-1.085 -1.59,-2.477 -1.59,-4.177 l 0,-1.479 -3.142,0 0,-3.512 3.142,0 0,-15.601 5.249,0 0,15.601 3.623,0 0,3.512 z m 4.756,-7.505 c 0.024,0.37 0.104,0.788 0.24,1.257 0.135,0.468 0.37,0.912 0.702,1.331 0.334,0.419 0.777,0.77 1.332,1.054 0.554,0.282 1.25,0.425 2.088,0.425 1.281,0 2.237,-0.346 2.865,-1.036 0.629,-0.689 1.066,-1.7 1.312,-3.031 l -8.539,0 z m 11.737,4.547 c -0.776,1.059 -1.769,1.904 -2.976,2.533 -1.208,0.628 -2.624,0.942 -4.251,0.942 -1.455,0 -2.779,-0.259 -3.974,-0.776 -1.196,-0.517 -2.225,-1.226 -3.087,-2.126 -0.863,-0.9 -1.528,-1.965 -1.996,-3.197 -0.469,-1.233 -0.703,-2.564 -0.703,-3.993 0,-1.479 0.228,-2.834 0.684,-4.067 0.456,-1.232 1.103,-2.291 1.941,-3.179 0.838,-0.887 1.861,-1.571 3.068,-2.051 1.207,-0.481 2.563,-0.721 4.067,-0.721 2.168,0 4.017,0.492 5.545,1.478 1.528,0.986 2.662,2.625 3.401,4.917 l -4.621,0 c -0.173,-0.591 -0.641,-1.152 -1.405,-1.682 -0.764,-0.53 -1.676,-0.795 -2.735,-0.795 -1.479,0 -2.613,0.382 -3.402,1.147 -0.788,0.763 -1.219,1.996 -1.293,3.696 l 13.789,0 c 0.098,1.479 -0.025,2.896 -0.37,4.251 -0.345,1.355 -0.906,2.563 -1.682,3.623 m -34.643,-8.761 c 0,-0.296 -0.031,-0.691 -0.092,-1.183 -0.061,-0.493 -0.228,-0.98 -0.499,-1.46 -0.271,-0.481 -0.69,-0.894 -1.257,-1.239 -0.567,-0.345 -1.368,-0.518 -2.403,-0.518 -0.419,0 -0.826,0.038 -1.22,0.112 -0.394,0.074 -0.739,0.203 -1.035,0.388 -0.296,0.185 -0.53,0.437 -0.702,0.758 -0.173,0.32 -0.259,0.714 -0.259,1.183 0,0.492 0.086,0.899 0.259,1.22 0.172,0.32 0.4,0.585 0.684,0.794 0.283,0.209 0.615,0.376 0.998,0.5 0.381,0.123 0.77,0.221 1.164,0.295 0.419,0.074 0.838,0.136 1.257,0.185 0.419,0.049 0.819,0.111 1.202,0.185 0.381,0.074 0.739,0.166 1.072,0.277 0.333,0.111 0.609,0.265 0.831,0.462 l 0,-1.959 z m 5.25,-3.142 0,9.944 c 0,1.158 -0.259,2.089 -0.777,2.791 -0.517,0.703 -1.183,1.251 -1.995,1.645 -0.814,0.394 -1.714,0.659 -2.7,0.795 -0.986,0.135 -1.959,0.203 -2.92,0.203 -1.06,0 -2.113,-0.105 -3.161,-0.314 -1.047,-0.21 -1.99,-0.561 -2.828,-1.054 -0.838,-0.493 -1.528,-1.146 -2.07,-1.959 -0.542,-0.813 -0.85,-1.836 -0.924,-3.068 l 5.25,0 c 0.098,1.035 0.443,1.775 1.035,2.218 0.591,0.443 1.405,0.666 2.439,0.666 0.468,0 0.906,-0.032 1.313,-0.093 0.406,-0.062 0.764,-0.185 1.072,-0.37 0.308,-0.185 0.554,-0.444 0.739,-0.776 0.185,-0.333 0.277,-0.783 0.277,-1.349 0.025,-0.543 -0.135,-0.956 -0.48,-1.239 -0.345,-0.284 -0.813,-0.499 -1.405,-0.647 -0.591,-0.147 -1.27,-0.259 -2.033,-0.333 -0.764,-0.073 -1.541,-0.172 -2.329,-0.295 -0.789,-0.124 -1.571,-0.29 -2.347,-0.499 -0.777,-0.21 -1.467,-0.524 -2.071,-0.943 -0.604,-0.419 -1.097,-0.979 -1.479,-1.682 -0.382,-0.702 -0.573,-1.596 -0.573,-2.68 0,-0.986 0.167,-1.836 0.499,-2.551 0.334,-0.715 0.795,-1.306 1.387,-1.774 0.592,-0.469 1.281,-0.814 2.07,-1.036 0.789,-0.221 1.639,-0.332 2.551,-0.332 1.183,0 2.341,0.173 3.475,0.518 1.133,0.344 2.119,0.947 2.957,1.811 0.025,-0.321 0.068,-0.635 0.13,-0.943 0.061,-0.309 0.141,-0.61 0.24,-0.906 l 5.324,0 c -0.247,0.394 -0.42,0.985 -0.518,1.775 -0.099,0.788 -0.148,1.614 -0.148,2.477 m -8.085,22.251 0.019,0 0.859,-2.501 -1.766,0 0.888,2.501 z m -1.279,-3.618 2.549,0 0.515,-1.518 1.556,0 -2.549,6.816 -1.536,0 -2.578,-6.816 1.508,0 0.535,1.518 z M -50.324,-16.09 c -0.567,0.407 -1.214,0.733 -1.94,0.98 -0.728,0.246 -1.473,0.456 -2.237,0.628 -0.74,0.173 -1.466,0.333 -2.181,0.481 -0.715,0.148 -1.349,0.314 -1.904,0.499 -0.555,0.185 -1.005,0.425 -1.35,0.721 -0.345,0.296 -0.517,0.677 -0.517,1.146 0,0.394 0.098,0.708 0.296,0.943 0.197,0.234 0.437,0.412 0.721,0.536 0.283,0.123 0.597,0.203 0.942,0.24 0.345,0.037 0.666,0.055 0.961,0.055 0.937,0 1.75,-0.179 2.441,-0.536 0.689,-0.357 1.071,-1.041 1.145,-2.051 l 4.991,0 c -0.099,1.182 -0.401,2.162 -0.906,2.938 -0.505,0.777 -1.14,1.399 -1.903,1.868 -0.765,0.467 -1.634,0.8 -2.607,0.997 -0.973,0.197 -1.977,0.296 -3.013,0.296 -1.035,0 -2.046,-0.092 -3.031,-0.277 -0.986,-0.185 -1.873,-0.505 -2.662,-0.961 -0.789,-0.456 -1.423,-1.078 -1.904,-1.867 -0.48,-0.789 -0.72,-1.799 -0.72,-3.031 0,-0.838 0.172,-1.547 0.517,-2.126 0.345,-0.579 0.801,-1.06 1.368,-1.442 0.567,-0.382 1.213,-0.69 1.941,-0.924 0.727,-0.234 1.472,-0.438 2.237,-0.61 1.872,-0.394 3.332,-0.789 4.38,-1.183 1.047,-0.394 1.571,-0.986 1.571,-1.774 0,-0.469 -0.111,-0.857 -0.333,-1.165 -0.222,-0.309 -0.499,-0.554 -0.831,-0.739 -0.333,-0.185 -0.703,-0.321 -1.109,-0.407 -0.407,-0.086 -0.795,-0.129 -1.165,-0.129 -0.517,0 -1.016,0.061 -1.497,0.185 -0.481,0.123 -0.906,0.314 -1.276,0.572 -0.369,0.259 -0.671,0.592 -0.905,0.999 -0.235,0.406 -0.351,0.893 -0.351,1.46 l -4.991,0 c 0.049,-1.282 0.339,-2.348 0.869,-3.198 0.53,-0.85 1.207,-1.534 2.033,-2.052 0.825,-0.517 1.768,-0.886 2.828,-1.108 1.059,-0.222 2.144,-0.333 3.253,-0.333 1.085,0 2.15,0.104 3.198,0.314 1.047,0.209 1.978,0.573 2.791,1.09 0.813,0.518 1.472,1.202 1.978,2.052 0.504,0.85 0.757,1.904 0.757,3.161 0,0.887 -0.172,1.632 -0.517,2.236 -0.345,0.604 -0.801,1.11 -1.368,1.516" /></g></g></g></g></g></svg>