<?xml version="1.0" encoding="utf-8"?>
<!-- Generator: Adobe Illustrator 16.0.0, SVG Export Plug-In . SVG Version: 6.00 Build 0)  -->
<!DOCTYPE svg PUBLIC "-//W3C//DTD SVG 1.1//EN" "http://www.w3.org/Graphics/SVG/1.1/DTD/svg11.dtd">
<svg version="1.1" id="Layer_1" xmlns="http://www.w3.org/2000/svg" xmlns:xlink="http://www.w3.org/1999/xlink" x="0px" y="0px"
	 width="301.593px" height="301.129px" viewBox="270.149 236.019 301.593 301.129"
	 enable-background="new 270.149 236.019 301.593 301.129" xml:space="preserve">
<g id="XMLID_184_">
	<path id="XMLID_195_" d="M275.031,336.008h62.551v201.141h-62.551V336.008z M306.423,236.019c19.998,0,36.274,16.277,36.274,36.275
		c0,19.997-16.276,36.274-36.274,36.274c-20.114,0-36.274-16.277-36.274-36.274C270.149,252.297,286.309,236.019,306.423,236.019"/>
	<path id="XMLID_192_" d="M376.88,336.008h59.877v27.556h0.813c8.371-15.812,28.718-32.438,59.18-32.438
		c63.248,0,74.991,41.623,74.991,95.803v110.221h-62.435v-97.78c0-23.369-0.35-53.365-32.438-53.365
		c-32.555,0-37.438,25.462-37.438,51.621v99.524h-62.435L376.88,336.008L376.88,336.008z"/>
</g>
</svg>
